<svg width="1440" height="259" viewBox="0 0 1440 259" fill="none" xmlns="http://www.w3.org/2000/svg">
<g opacity="0.48">
<path d="M53.2882 33.4554H0V2.71729H145.236V33.4554H91.9482V165.239H53.2882V33.4554Z" fill="#306FF5"/>
<path d="M318.511 2.71729V165.239H280.025V98.6679H204.446V165.239H165.786V2.71729H204.446V66.9108H280.025V2.71729H318.511Z" fill="#306FF5"/>
<path d="M465.313 129.406C473.324 124.99 479.593 118.707 484.121 110.895C488.474 103.083 490.738 94.0824 490.738 84.0628C490.738 73.8734 488.474 65.0425 484.121 57.0608C479.593 49.2489 473.324 42.9654 465.313 38.7198C457.477 34.3044 448.595 32.0967 438.669 32.0967C428.917 32.0967 420.036 34.3044 412.025 38.7198C404.189 42.9654 397.919 49.2489 393.392 57.0608C388.864 65.0425 386.6 73.8734 386.6 84.0628C386.6 94.0824 388.864 103.083 393.392 110.895C397.919 118.707 404.189 124.99 412.025 129.406C420.036 133.821 428.917 136.029 438.669 136.029C448.595 136.029 457.477 133.821 465.313 129.406ZM391.999 157.087C378.067 149.785 367.27 139.765 359.434 127.028C351.597 114.291 347.592 99.8564 347.592 84.0628C347.592 68.0994 351.597 53.6643 359.434 40.9275C367.27 28.1908 378.067 18.1712 391.999 10.8687C405.93 3.5663 421.429 0 438.669 0C456.084 0 471.582 3.5663 485.34 10.8687C499.097 18.1712 510.068 28.1908 517.905 40.9275C525.916 53.6643 529.921 68.0994 529.921 84.0628C529.921 99.8564 525.916 114.291 517.905 127.028C510.068 139.765 499.097 149.785 485.34 157.087C471.582 164.389 456.084 167.956 438.669 167.956C421.429 167.956 405.93 164.389 391.999 157.087Z" fill="#306FF5"/>
<path d="M577.289 148.766C564.054 135.859 557.436 117.518 557.436 93.7428V2.71729H595.922V92.3842C595.922 121.424 608.286 136.029 633.015 136.029C645.205 136.029 654.261 132.463 660.704 125.33C666.973 118.367 670.108 107.329 670.108 92.3842V2.71729H708.245V93.7428C708.245 117.518 701.628 135.859 688.393 148.766C675.158 161.503 656.699 167.956 632.841 167.956C608.983 167.956 590.524 161.503 577.289 148.766Z" fill="#306FF5"/>
<path d="M762.927 162.691C750.563 159.295 740.637 154.71 733.148 149.105L746.383 120.915C753.523 126.009 761.882 130.085 771.808 133.142C781.56 136.199 791.487 137.897 801.239 137.897C812.21 137.897 820.22 136.199 825.619 133.142C830.843 129.915 833.455 125.67 833.455 120.405C833.455 116.499 831.888 113.273 828.754 110.725C825.619 108.178 821.614 106.14 816.912 104.611C812.036 103.083 805.418 101.385 797.233 99.5168C784.521 96.6298 774.072 93.7428 766.062 90.6859C758.051 87.7989 751.085 83.0439 745.338 76.5906C739.418 70.1373 736.631 61.4762 736.631 50.6075C736.631 41.0974 739.243 32.6062 744.468 24.9641C749.692 17.322 757.529 11.2084 768.151 6.79295C778.6 2.20771 791.487 0 806.811 0C817.434 0 827.709 1.18877 837.983 3.73612C848.084 6.11366 856.965 9.67996 864.627 14.435L852.611 42.9654C837.287 34.4742 821.962 30.2286 806.463 30.2286C795.666 30.2286 787.83 31.9269 782.605 35.3234C777.381 38.7198 774.943 43.1353 774.943 48.7394C774.943 54.3436 777.903 58.4194 783.824 61.1366C789.745 63.8538 798.801 66.571 810.991 69.1183C823.703 72.0053 834.152 75.0621 842.163 77.9492C850.347 80.8362 857.139 85.5912 863.06 91.8747C868.807 98.1582 871.767 106.819 871.767 117.688C871.767 126.858 868.981 135.35 863.757 142.992C858.358 150.634 850.347 156.747 839.899 161.163C829.102 165.748 816.215 167.956 801.065 167.956C787.83 167.956 775.117 166.258 762.927 162.691Z" fill="#306FF5"/>
<path d="M1233.12 2.71729V165.239H1201.42L1118.36 66.5711V165.239H1080.39V2.71729H1112.26L1194.98 101.385V2.71729H1233.12Z" fill="#306FF5"/>
<path d="M1428.51 41.2673C1420.84 29.04 1410.05 19.6997 1396.12 12.9067C1382.18 6.11377 1366.34 2.71729 1348.23 2.71729H1272.47V33.6253H1346.31C1363.03 33.6253 1376.26 38.2105 1386.19 47.2112C1396.12 56.2119 1400.99 68.609 1400.99 84.063C1400.99 99.517 1396.12 111.744 1386.19 120.745C1376.26 129.746 1363.03 134.331 1346.31 134.331H1272.47V165.239H1348.23C1366.34 165.239 1382.18 161.842 1396.12 155.049C1410.05 148.426 1420.84 138.916 1428.51 126.689C1436.17 114.461 1440 100.196 1440 84.063C1440 67.7599 1436.17 53.4947 1428.51 41.2673Z" fill="#306FF5"/>
<path d="M988.443 2.71729H950.48L876.12 165.239H915.651L930.453 130.425L942.817 101.895L969.287 39.7389L995.583 101.895L1007.77 130.425L1022.58 165.239H1062.98L988.443 2.71729Z" fill="#306FF5"/>
<path d="M386.253 252.869C389.213 251.171 391.477 248.963 393.218 246.246C394.96 243.359 395.656 240.302 395.656 236.736C395.656 233.339 394.96 230.113 393.218 227.226C391.477 224.509 389.213 222.301 386.253 220.603C383.466 219.074 380.158 218.225 376.501 218.225C372.844 218.225 369.709 219.074 366.748 220.603C363.788 222.301 361.524 224.509 359.783 227.226C358.041 230.113 357.171 233.339 357.171 236.736C357.171 240.302 358.041 243.359 359.783 246.246C361.524 248.963 363.788 251.171 366.748 252.869C369.709 254.398 372.844 255.247 376.501 255.247C380.158 255.247 383.466 254.398 386.253 252.869ZM365.007 255.247C361.698 253.379 358.912 250.831 356.996 247.605C355.081 244.378 354.036 240.812 354.036 236.736C354.036 232.83 355.081 229.094 356.996 225.867C358.912 222.64 361.698 220.093 365.007 218.225C368.49 216.357 372.321 215.508 376.501 215.508C380.68 215.508 384.511 216.357 387.994 218.225C391.303 220.093 394.089 222.64 396.005 225.867C397.92 229.094 398.965 232.66 398.965 236.736C398.965 240.812 397.92 244.378 396.005 247.774C394.089 251.001 391.303 253.549 387.994 255.247C384.511 257.115 380.68 258.134 376.501 258.134C372.321 258.134 368.49 257.115 365.007 255.247Z" fill="#306FF5"/>
<path d="M412.897 218.565V236.397H435.884V239.284H412.897V257.794H409.762V215.678H438.67V218.565H412.897Z" fill="#306FF5"/>
<path d="M499.62 215.678V257.794H496.486V237.755H467.752V257.794H464.617V215.678H467.752V235.038H496.486V215.678H499.62Z" fill="#306FF5"/>
<path d="M540.196 243.359L528.876 219.075L517.557 243.359H540.196ZM541.415 245.907H516.338L510.765 257.794H507.457L527.309 215.678H530.444L550.296 257.794H546.813L541.415 245.907Z" fill="#306FF5"/>
<path d="M584.081 238.265C586.519 236.397 587.738 233.51 587.738 229.943C587.738 226.207 586.519 223.49 584.081 221.452C581.643 219.414 578.16 218.565 573.458 218.565H561.268V241.322H573.458C578.16 241.322 581.643 240.303 584.081 238.265ZM586.344 219.414C589.305 221.962 590.872 225.528 590.872 229.943C590.872 234.359 589.305 237.755 586.344 240.303C583.21 242.85 579.03 244.039 573.458 244.039H561.268V257.794H558.133V215.678H573.458C579.03 215.678 583.21 217.037 586.344 219.414Z" fill="#306FF5"/>
<path d="M627.442 238.265C629.88 236.397 631.099 233.51 631.099 229.943C631.099 226.207 629.88 223.49 627.442 221.452C625.004 219.414 621.521 218.565 616.993 218.565H604.629V241.322H616.993C621.521 241.322 625.004 240.303 627.442 238.265ZM629.706 219.414C632.841 221.962 634.408 225.528 634.408 229.943C634.408 234.359 632.841 237.755 629.706 240.303C626.571 242.85 622.392 244.039 616.993 244.039H604.629V257.794H601.495V215.678H616.993C622.392 215.678 626.571 217.037 629.706 219.414Z" fill="#306FF5"/>
<path d="M658.266 243.359V257.794H655.131V243.359L637.717 215.678H641.2L656.698 240.472L672.371 215.678H675.506L658.266 243.359Z" fill="#306FF5"/>
<path d="M705.981 255.247C702.672 253.549 700.06 251.001 697.97 247.774C696.055 244.378 695.184 240.812 695.184 236.736C695.184 232.66 696.055 229.094 697.97 225.867C700.06 222.64 702.672 220.093 705.981 218.225C709.464 216.357 713.295 215.508 717.474 215.508C720.609 215.508 723.395 215.847 726.007 216.866C728.794 217.885 730.883 219.414 732.799 221.282L730.883 223.32C727.401 219.923 723.047 218.225 717.649 218.225C713.992 218.225 710.683 219.074 707.722 220.603C704.762 222.301 702.498 224.509 700.757 227.226C699.015 230.113 698.319 233.339 698.319 236.736C698.319 240.302 699.015 243.359 700.757 246.246C702.498 248.963 704.762 251.171 707.722 252.869C710.683 254.398 713.992 255.247 717.649 255.247C722.873 255.247 727.401 253.549 730.883 250.152L732.799 252.19C730.883 254.058 728.794 255.586 726.007 256.605C723.395 257.624 720.609 258.134 717.474 258.134C713.295 258.134 709.464 257.115 705.981 255.247Z" fill="#306FF5"/>
<path d="M747.427 253.379C744.467 250.322 742.899 245.907 742.899 239.963V215.678H746.034V239.793C746.034 245.058 747.253 248.794 749.691 251.341C752.129 254.058 755.612 255.247 760.139 255.247C764.841 255.247 768.324 254.058 770.762 251.341C773.026 248.794 774.245 245.058 774.245 239.793V215.678H777.38V239.963C777.38 245.907 775.987 250.322 772.852 253.379C769.892 256.606 765.538 258.134 760.139 258.134C754.741 258.134 750.387 256.606 747.427 253.379Z" fill="#306FF5"/>
<path d="M794.447 256.436C791.661 255.417 789.397 254.058 787.83 252.36L789.223 250.152C790.616 251.68 792.706 252.869 795.318 253.888C797.93 254.907 800.542 255.417 803.328 255.417C807.508 255.417 810.642 254.567 812.732 253.039C814.822 251.511 815.866 249.643 815.866 247.095C815.866 245.227 815.344 243.699 814.125 242.68C813.08 241.491 811.687 240.642 810.12 240.132C808.378 239.453 806.114 238.774 803.328 238.264C800.194 237.415 797.756 236.736 795.84 236.057C793.925 235.207 792.183 234.189 790.964 232.66C789.571 231.132 788.874 229.094 788.874 226.546C788.874 224.509 789.397 222.64 790.616 220.942C791.661 219.244 793.402 217.885 795.666 216.866C797.93 216.017 800.716 215.508 804.199 215.508C806.637 215.508 808.901 215.847 811.165 216.527C813.428 217.206 815.518 218.055 817.26 219.244L816.041 221.621C814.299 220.603 812.384 219.584 810.294 219.074C808.204 218.395 806.289 218.225 804.199 218.225C800.194 218.225 797.233 218.904 795.144 220.433C793.054 222.131 792.009 223.999 792.009 226.546C792.009 228.414 792.531 229.943 793.75 231.132C794.795 232.151 796.188 233 797.93 233.679C799.497 234.189 801.761 234.868 804.547 235.547C807.682 236.396 810.294 237.076 812.209 237.755C813.951 238.434 815.692 239.623 816.911 240.981C818.304 242.51 819.001 244.548 819.001 246.925C819.001 248.963 818.479 250.831 817.26 252.53C816.215 254.228 814.473 255.586 812.035 256.605C809.771 257.624 806.811 258.134 803.502 258.134C800.368 258.134 797.233 257.624 794.447 256.436Z" fill="#306FF5"/>
<path d="M837.286 218.565H821.787V215.678H855.92V218.565H840.421V257.794H837.286V218.565Z" fill="#306FF5"/>
<path d="M891.097 252.869C894.057 251.171 896.321 248.963 898.063 246.246C899.804 243.359 900.501 240.302 900.501 236.736C900.501 233.339 899.804 230.113 898.063 227.226C896.321 224.509 894.057 222.301 891.097 220.603C888.311 219.074 885.002 218.225 881.345 218.225C877.688 218.225 874.553 219.074 871.593 220.603C868.632 222.301 866.369 224.509 864.627 227.226C862.886 230.113 862.015 233.339 862.015 236.736C862.015 240.302 862.886 243.359 864.627 246.246C866.369 248.963 868.632 251.171 871.593 252.869C874.553 254.398 877.688 255.247 881.345 255.247C885.002 255.247 888.311 254.398 891.097 252.869ZM869.851 255.247C866.543 253.379 863.756 250.831 861.841 247.605C859.925 244.378 858.88 240.812 858.88 236.736C858.88 232.83 859.925 229.094 861.841 225.867C863.756 222.64 866.543 220.093 869.851 218.225C873.334 216.357 877.165 215.508 881.345 215.508C885.524 215.508 889.355 216.357 892.838 218.225C896.147 220.093 898.933 222.64 900.849 225.867C902.764 229.094 903.809 232.66 903.809 236.736C903.809 240.812 902.764 244.378 900.849 247.774C898.933 251.001 896.147 253.549 892.838 255.247C889.355 257.115 885.524 258.134 881.345 258.134C877.165 258.134 873.334 257.115 869.851 255.247Z" fill="#306FF5"/>
<path d="M955.53 257.794L955.356 221.792L937.419 252.19H935.852L917.741 221.962V257.794H914.606V215.678H917.392L936.548 248.284L955.878 215.678H958.491V257.794H955.53Z" fill="#306FF5"/>
<path d="M1003.25 255.077V257.794H973.641V215.678H1002.38V218.565H976.776V235.038H999.589V237.755H976.776V255.077H1003.25Z" fill="#306FF5"/>
<path d="M1030.24 241.322C1034.77 241.322 1038.25 240.303 1040.69 238.435C1043.13 236.397 1044.34 233.51 1044.34 229.943C1044.34 226.207 1043.13 223.49 1040.69 221.452C1038.25 219.414 1034.77 218.565 1030.24 218.565H1017.87V241.322H1030.24ZM1044.69 257.794L1034.42 243.699C1032.85 243.869 1031.46 244.039 1030.24 244.039H1017.87V257.794H1014.74V215.678H1030.24C1035.64 215.678 1039.82 217.037 1042.95 219.414C1046.09 221.962 1047.65 225.528 1047.65 229.943C1047.65 233.17 1046.78 236.057 1045.04 238.265C1043.3 240.472 1040.69 242.171 1037.55 243.02L1048.35 257.794H1044.69Z" fill="#306FF5"/>
<path d="M1061.41 256.436C1058.62 255.417 1056.36 254.058 1054.79 252.36L1056.19 250.152C1057.75 251.68 1059.67 252.869 1062.28 253.888C1064.89 254.907 1067.51 255.417 1070.29 255.417C1074.47 255.417 1077.61 254.567 1079.7 253.039C1081.79 251.511 1082.83 249.643 1082.83 247.095C1082.83 245.227 1082.31 243.699 1081.09 242.68C1080.04 241.491 1078.65 240.642 1077.08 240.132C1075.34 239.453 1073.25 238.774 1070.29 238.264C1067.16 237.415 1064.72 236.736 1062.8 236.057C1060.89 235.207 1059.32 234.189 1057.93 232.66C1056.53 231.132 1055.84 229.094 1055.84 226.546C1055.84 224.509 1056.53 222.64 1057.58 220.942C1058.62 219.244 1060.37 217.885 1062.63 216.866C1064.89 216.017 1067.85 215.508 1071.16 215.508C1073.6 215.508 1075.86 215.847 1078.13 216.527C1080.57 217.206 1082.48 218.055 1084.22 219.244L1083 221.621C1081.26 220.603 1079.35 219.584 1077.26 219.074C1075.17 218.395 1073.25 218.225 1071.16 218.225C1067.16 218.225 1064.2 218.904 1062.11 220.433C1060.02 222.131 1058.97 223.999 1058.97 226.546C1058.97 228.414 1059.67 229.943 1060.71 231.132C1061.76 232.151 1063.15 233 1064.89 233.679C1066.46 234.189 1068.72 234.868 1071.51 235.547C1074.65 236.396 1077.26 237.076 1079.17 237.755C1081.09 238.434 1082.66 239.623 1083.87 240.981C1085.27 242.51 1085.96 244.548 1085.96 246.925C1085.96 248.963 1085.44 250.831 1084.22 252.53C1083.18 254.228 1081.44 255.586 1079 256.605C1076.74 257.624 1073.77 258.134 1070.47 258.134C1067.33 258.134 1064.2 257.624 1061.41 256.436Z" fill="#306FF5"/>
</g>
</svg>
