<svg width="148" height="40" viewBox="0 0 148 40" fill="none" xmlns="http://www.w3.org/2000/svg">
<g clip-path="url(#clip0_30_315)">
<path d="M136.214 0.00013H11.7925C11.3389 0.00013 10.8908 0.00013 10.4385 0.00213C10.0598 0.00413 9.68422 0.00994 9.30194 0.01483C8.47145 0.0227318 7.64291 0.0818063 6.82352 0.19154C6.00529 0.303663 5.21269 0.515046 4.47253 0.81854C3.73327 1.1246 3.05779 1.5223 2.47059 1.9972C1.8803 2.47077 1.38826 3.01815 1.01337 3.61829C0.637445 4.21724 0.376778 4.85907 0.240371 5.52161C0.102668 6.18332 0.028568 6.85265 0.0187375 7.52361C0.00725999 7.83021 0.00604793 8.13783 0 8.44447V31.5587C0.00604793 31.8692 0.00725999 32.17 0.0187375 32.4806C0.028571 33.1516 0.102671 33.8209 0.240371 34.4825C0.376401 35.1455 0.637084 35.7877 1.01337 36.3868C1.38809 36.985 1.8802 37.5302 2.47059 38.0011C3.05556 38.4781 3.73148 38.8761 4.47253 39.1798C5.21268 39.4841 6.0052 39.6968 6.82352 39.8106C7.64305 39.9195 8.4715 39.9786 9.30194 39.9874C9.68422 39.9942 10.0598 39.9981 10.4385 39.9981C10.8908 40.0001 11.3389 40.0001 11.7925 40.0001H136.214C136.659 40.0001 137.11 40.0001 137.555 39.9981C137.932 39.9981 138.318 39.9942 138.695 39.9874C139.524 39.9791 140.351 39.92 141.169 39.8106C141.99 39.696 142.785 39.4834 143.529 39.1798C144.269 38.8759 144.944 38.478 145.529 38.0011C146.118 37.5284 146.611 36.9836 146.99 36.3868C147.364 35.7872 147.622 35.1451 147.756 34.4825C147.894 33.8208 147.971 33.1516 147.986 32.4806C147.99 32.17 147.99 31.8692 147.99 31.5587C148 31.1954 148 30.8341 148 30.4649V9.53626C148 9.17005 148 8.80677 147.99 8.44447C147.99 8.13783 147.99 7.83021 147.986 7.52357C147.971 6.85255 147.894 6.18337 147.756 5.52157C147.622 4.85941 147.363 4.21763 146.99 3.61825C146.227 2.41533 145.016 1.43616 143.529 0.81845C142.785 0.515697 141.99 0.30437 141.169 0.19145C140.351 0.0812328 139.524 0.0221378 138.695 0.01469C138.318 0.00981 137.932 0.00395 137.555 0.002C137.11 0 136.659 0 136.214 0V0.00013Z" fill="#A6A6A6"/>
<path d="M10.4446 39.125C10.0677 39.125 9.70002 39.1211 9.32615 39.1143C8.55164 39.1061 7.77895 39.0516 7.0144 38.9512C6.3015 38.8519 5.61089 38.6673 4.96535 38.4033C4.32573 38.1415 3.74235 37.7983 3.23755 37.3867C2.72544 36.98 2.29909 36.5082 1.97539 35.9902C1.64812 35.4688 1.42163 34.9099 1.30381 34.333C1.17657 33.7131 1.10773 33.0863 1.09788 32.458C1.09004 32.2471 1.07977 31.5449 1.07977 31.5449V8.44434C1.07977 8.44434 1.09071 7.75293 1.09794 7.5498C1.10737 6.92248 1.17581 6.29665 1.30267 5.67773C1.42071 5.09925 1.64737 4.53875 1.97482 4.01563C2.29733 3.49794 2.72132 3.02586 3.23034 2.61768C3.73879 2.20562 4.32404 1.8606 4.96475 1.59521C5.6088 1.33209 6.2981 1.14873 7.00956 1.05127C7.77662 0.949836 8.552 0.894996 9.32919 0.88721L10.4452 0.875H137.549L138.678 0.8877C139.448 0.895099 140.217 0.94945 140.977 1.05029C141.695 1.14898 142.392 1.33362 143.043 1.59814C144.327 2.13299 145.371 2.97916 146.03 4.01807C146.352 4.53758 146.575 5.09351 146.692 5.66699C146.82 6.29099 146.892 6.92174 146.907 7.5542C146.911 7.8374 146.911 8.1416 146.911 8.44434C146.92 8.81934 146.92 9.17627 146.92 9.53613V30.4648C146.92 30.8281 146.92 31.1826 146.911 31.54C146.911 31.8652 146.911 32.1631 146.906 32.4697C146.891 33.0909 146.821 33.7104 146.694 34.3232C146.579 34.9043 146.354 35.4675 146.026 35.9932C145.701 36.5056 145.277 36.9733 144.77 37.3789C144.265 37.7927 143.681 38.1379 143.04 38.4014C142.39 38.6674 141.695 38.8527 140.977 38.9512C140.212 39.0522 139.439 39.1067 138.665 39.1143C138.303 39.1211 137.923 39.125 137.555 39.125L136.214 39.127L10.4446 39.125Z" fill="black"/>
<path d="M27.6491 20.763C27.6612 19.8431 27.9099 18.9411 28.3723 18.141C28.8346 17.3409 29.4955 16.6687 30.2935 16.1869C29.7866 15.4758 29.1178 14.8907 28.3404 14.4779C27.5629 14.065 26.6982 13.836 25.8148 13.8088C23.9305 13.6146 22.1037 14.9163 21.1434 14.9163C20.1646 14.9163 18.6862 13.8281 17.0942 13.8603C16.0644 13.893 15.0608 14.1871 14.1812 14.714C13.3016 15.2408 12.5759 15.9825 12.0749 16.8668C9.90465 20.5572 11.5234 25.9808 13.6024 28.9639C14.6425 30.4246 15.8581 32.0562 17.4487 31.9984C19.0051 31.9349 19.5865 31.0235 21.4653 31.0235C23.3267 31.0235 23.8721 31.9984 25.4949 31.9616C27.1651 31.9349 28.2174 30.4944 29.221 29.0198C29.9683 27.979 30.5434 26.8287 30.9249 25.6115C29.9546 25.2084 29.1265 24.5337 28.544 23.6715C27.9615 22.8093 27.6502 21.7978 27.6491 20.763Z" fill="white"/>
<path d="M24.6684 11.8471C25.659 10.7734 26.1471 9.39335 26.0289 8C24.5154 8.14352 23.1174 8.7966 22.1134 9.82911C21.6225 10.3335 21.2465 10.9203 21.007 11.556C20.7674 12.1917 20.669 12.8638 20.7173 13.5338C21.4743 13.5408 22.2232 13.3927 22.9076 13.1005C23.592 12.8084 24.194 12.3798 24.6684 11.8471Z" fill="white"/>
<path d="M51.3555 26.9286H46.0621L44.7909 30.3175H42.5488L47.5626 17.7793H49.892L54.9058 30.3175H52.6255L51.3555 26.9286ZM46.6103 25.3647H50.8062L48.7378 19.8647H48.6799L46.6103 25.3647Z" fill="white"/>
<path d="M65.734 25.7476C65.734 28.5883 64.05 30.4134 61.5087 30.4134C60.8649 30.4438 60.2247 30.31 59.6613 30.0271C59.0979 29.7443 58.6341 29.3239 58.3231 28.8141H58.275V33.3419H56.1967V21.1764H58.2084V22.6969H58.2466C58.572 22.1895 59.0436 21.7713 59.6113 21.4868C60.179 21.2022 60.8215 21.0619 61.4705 21.0808C64.0401 21.0808 65.734 22.9148 65.734 25.7476ZM63.5978 25.7476C63.5978 23.8969 62.5385 22.6801 60.9222 22.6801C59.3343 22.6801 58.2663 23.9225 58.2663 25.7476C58.2663 27.5895 59.3343 28.823 60.9222 28.823C62.5385 28.823 63.5978 27.6151 63.5978 25.7476Z" fill="white"/>
<path d="M76.8776 25.7476C76.8776 28.5883 75.1936 30.4134 72.6523 30.4134C72.0085 30.4438 71.3683 30.31 70.8049 30.0271C70.2415 29.7443 69.7777 29.3239 69.4667 28.8141H69.4186V33.3419H67.3403V21.1764H69.352V22.6969H69.3902C69.7156 22.1895 70.1872 21.7713 70.7549 21.4868C71.3226 21.2022 71.9651 21.0619 72.614 21.0808C75.1838 21.0808 76.8776 22.9148 76.8776 25.7476ZM74.7415 25.7476C74.7415 23.8969 73.6821 22.6801 72.0658 22.6801C70.4779 22.6801 69.4099 23.9225 69.4099 25.7476C69.4099 27.5895 70.4779 28.823 72.0658 28.823C73.6821 28.823 74.7415 27.6151 74.7415 25.7476H74.7415Z" fill="white"/>
<path d="M84.2427 26.8241C84.3967 28.0675 85.7345 28.8839 87.5626 28.8839C89.3143 28.8839 90.5746 28.0675 90.5746 26.9464C90.5746 25.9732 89.8145 25.3904 88.0147 24.9911L86.215 24.5996C83.665 24.0435 82.4811 22.9668 82.4811 21.2196C82.4811 19.0562 84.5692 17.5703 87.5342 17.5703C90.4687 17.5703 92.4803 19.0562 92.548 21.2196H90.4501C90.3245 19.9683 89.1789 19.213 87.5047 19.213C85.8305 19.213 84.6849 19.9772 84.6849 21.0894C84.6849 21.9758 85.4166 22.4974 87.2066 22.8967L88.7366 23.2359C91.5859 23.8443 92.7697 24.8777 92.7697 26.7116C92.7697 29.0574 90.7002 30.5265 87.4086 30.5265C84.3289 30.5265 82.2496 29.0919 82.1152 26.824L84.2427 26.8241Z" fill="white"/>
<path d="M97.2549 19.0127V21.176H99.1803V22.6619H97.2549V27.7015C97.2549 28.4844 97.6405 28.8492 98.4868 28.8492C98.7154 28.8456 98.9436 28.8311 99.1705 28.8058V30.2828C98.7899 30.347 98.4032 30.3761 98.0161 30.3696C95.9663 30.3696 95.1669 29.6745 95.1669 27.9016V22.6619H93.6947V21.176H95.1668V19.0127H97.2549Z" fill="white"/>
<path d="M100.295 25.7475C100.295 22.8713 102.172 21.064 105.097 21.064C108.033 21.064 109.9 22.8713 109.9 25.7475C109.9 28.6316 108.043 30.4311 105.097 30.4311C102.153 30.4311 100.295 28.6316 100.295 25.7475ZM107.783 25.7475C107.783 23.7745 106.781 22.61 105.097 22.61C103.413 22.61 102.413 23.7834 102.413 25.7475C102.413 27.7284 103.413 28.8841 105.097 28.8841C106.781 28.8841 107.783 27.7284 107.783 25.7475H107.783Z" fill="white"/>
<path d="M111.614 21.1763H113.596V22.7323H113.644C113.778 22.2463 114.093 21.8169 114.537 21.5161C114.98 21.2153 115.525 21.0616 116.079 21.0807C116.319 21.0799 116.558 21.1034 116.791 21.1507V22.9058C116.489 22.8224 116.174 22.7841 115.858 22.7924C115.556 22.7814 115.255 22.8294 114.975 22.9333C114.696 23.0372 114.445 23.1944 114.239 23.3942C114.033 23.594 113.878 23.8317 113.783 24.0908C113.689 24.35 113.658 24.6245 113.692 24.8956V30.3177H111.614L111.614 21.1763Z" fill="white"/>
<path d="M126.373 27.6328C126.094 29.2923 124.304 30.4311 122.014 30.4311C119.068 30.4311 117.24 28.6494 117.24 25.7909C117.24 22.9236 119.078 21.064 121.926 21.064C124.728 21.064 126.489 22.8013 126.489 25.573V26.2159H119.338V26.3293C119.305 26.6657 119.352 27.0046 119.475 27.3235C119.598 27.6424 119.795 27.934 120.053 28.1789C120.31 28.4238 120.623 28.6164 120.969 28.7439C121.315 28.8715 121.688 28.931 122.062 28.9186C122.553 28.9601 123.046 28.8574 123.467 28.6258C123.888 28.3941 124.216 28.0458 124.4 27.6328L126.373 27.6328ZM119.348 24.9045H124.41C124.428 24.602 124.378 24.2993 124.261 24.0154C124.144 23.7314 123.963 23.4724 123.73 23.2545C123.496 23.0367 123.216 22.8647 122.905 22.7494C122.595 22.6341 122.262 22.5779 121.926 22.5844C121.588 22.5826 121.252 22.6413 120.939 22.7571C120.626 22.873 120.341 23.0437 120.102 23.2594C119.862 23.4751 119.672 23.7315 119.543 24.0139C119.413 24.2962 119.347 24.5989 119.348 24.9045V24.9045Z" fill="white"/>
<path d="M45.1559 10.3361H46.0668C46.2236 10.3537 46.3828 10.3419 46.5342 10.3012C46.6857 10.2605 46.8262 10.192 46.9469 10.0999C47.0675 10.0078 47.1658 9.89407 47.2354 9.76597C47.305 9.63788 47.3444 9.49816 47.3512 9.35562C47.3512 8.78836 46.8785 8.42193 46.0768 8.42193C45.9162 8.40166 45.7526 8.41066 45.5959 8.4484C45.4392 8.48614 45.2924 8.55185 45.1642 8.64165C45.0361 8.73145 44.9292 8.84352 44.8498 8.97125C44.7704 9.09898 44.7202 9.23977 44.7021 9.38532H43.7019C43.7191 9.12112 43.7964 8.86294 43.9289 8.62687C44.0614 8.3908 44.2463 8.18188 44.4722 8.01313C44.698 7.84438 44.9599 7.7194 45.2415 7.64599C45.5231 7.57257 45.8184 7.55228 46.1091 7.58639C47.4504 7.58639 48.3949 8.26438 48.3949 9.24035C48.398 9.56731 48.2769 9.88535 48.0516 10.1414C47.8264 10.3974 47.5107 10.5759 47.1572 10.6472V10.7197C47.5763 10.7364 47.9709 10.9023 48.2548 11.181C48.5387 11.4597 48.6889 11.8286 48.6725 12.207C48.6415 12.479 48.5506 12.7427 48.4053 12.9827C48.2599 13.2226 48.063 13.4339 47.826 13.6042C47.5891 13.7745 47.3168 13.9004 47.0253 13.9745C46.7337 14.0486 46.4287 14.0694 46.1281 14.0356C45.8269 14.0727 45.5205 14.0547 45.2272 13.9825C44.9339 13.9104 44.6597 13.7857 44.4209 13.6159C44.1821 13.446 43.9837 13.2345 43.8373 12.9939C43.691 12.7534 43.5999 12.4887 43.5693 12.2156H44.585C44.6463 12.804 45.2451 13.1835 46.1281 13.1835C47.0112 13.1835 47.5876 12.7572 47.5876 12.1562C47.5876 11.5467 47.0446 11.1712 46.0958 11.1712H45.1559V10.3361Z" fill="white"/>
<path d="M49.8265 12.5739C49.8265 11.7384 50.5166 11.2567 51.7386 11.1882L53.1312 11.1158V10.7151C53.1312 10.2249 52.7733 9.94802 52.0787 9.94802C51.5123 9.94802 51.121 10.1358 51.0072 10.4639H50.0249C50.1286 9.66666 50.9604 9.15527 52.1267 9.15527C53.4156 9.15527 54.1425 9.7346 54.1425 10.7151V13.8866H53.1647V13.2343H53.0844C52.9215 13.4683 52.6927 13.6591 52.4214 13.7871C52.1501 13.9151 51.846 13.9759 51.5402 13.9631C51.3244 13.9834 51.1062 13.9626 50.8998 13.9021C50.6935 13.8416 50.5034 13.7427 50.342 13.6118C50.1805 13.4809 50.0512 13.3209 49.9624 13.1422C49.8736 12.9634 49.8273 12.7698 49.8265 12.5739ZM53.1312 12.1773V11.7892L51.8757 11.8617C51.1677 11.9045 50.8466 12.1219 50.8466 12.5311C50.8466 12.9489 51.248 13.192 51.8 13.192C51.9617 13.2068 52.1251 13.1921 52.2803 13.1487C52.4356 13.1053 52.5797 13.0341 52.7039 12.9395C52.8281 12.8448 52.9299 12.7285 53.0033 12.5976C53.0768 12.4667 53.1203 12.3237 53.1312 12.1773Z" fill="white"/>
<path d="M56.8352 10.0162V13.8869H55.8206V9.24512H59.2056V10.0162L56.8352 10.0162Z" fill="white"/>
<path d="M65.3546 11.5638C65.3546 13.0386 64.5284 13.9632 63.2306 13.9632C62.912 13.9829 62.5938 13.9199 62.3135 13.7818C62.0332 13.6437 61.8025 13.4361 61.6484 13.1836H61.5682V15.43H60.5535V9.24495H61.5302V10.0121H61.6061C61.7629 9.75069 61.9966 9.53353 62.2815 9.38457C62.5664 9.23561 62.8914 9.16065 63.2205 9.16797C64.5284 9.16794 65.3546 10.0885 65.3546 11.5638ZM64.311 11.5638C64.311 10.5833 63.797 9.99089 62.9373 9.99089C62.0833 9.99089 61.5492 10.5959 61.5492 11.5679C61.5492 12.5353 62.0833 13.1408 62.9329 13.1408C63.797 13.1408 64.311 12.5483 64.311 11.5638Z" fill="white"/>
<path d="M66.706 15.5494V14.7607C66.8158 14.7733 66.9264 14.779 67.0371 14.7778C67.2532 14.7923 67.4677 14.7341 67.6393 14.6146C67.8109 14.495 67.9276 14.3225 67.9669 14.13L68.0428 13.904L66.1819 9.24512H67.2868L68.5758 12.9321H68.656L69.9405 9.24512H71.0164L69.0998 14.0787C68.6605 15.2081 68.1744 15.5706 67.1263 15.5706C67.0416 15.5705 66.8007 15.562 66.706 15.5494Z" fill="white"/>
<path d="M71.8069 12.5695H72.8171C72.9163 12.9787 73.3411 13.1921 73.9354 13.1921C74.6111 13.1921 75.0258 12.9233 75.0258 12.5056C75.0258 12.0581 74.6534 11.8447 73.9354 11.8447H73.1661V11.133H73.922C74.5353 11.133 74.8474 10.9201 74.8474 10.532C74.8474 10.1912 74.5453 9.93102 73.922 9.93102C73.3545 9.93102 72.9397 10.1485 72.8739 10.5149H71.8961C71.9692 10.0938 72.2224 9.7155 72.6013 9.46126C72.9801 9.20702 73.4544 9.09719 73.922 9.15538C75.144 9.15538 75.8431 9.65419 75.8431 10.4384C75.8488 10.6568 75.7713 10.8703 75.6236 11.0433C75.4758 11.2162 75.2668 11.3382 75.0314 11.3887V11.4612C75.3116 11.4938 75.5689 11.6182 75.7542 11.8107C75.9396 12.0032 76.0403 12.2505 76.0371 12.5056C76.0371 13.388 75.2053 13.9718 73.9354 13.9718C72.8126 13.9718 71.9006 13.5072 71.8069 12.5695Z" fill="white"/>
<path d="M77.4984 13.8869V9.24512H78.5041V12.4378H78.5843L80.9536 9.24513H81.9593V13.8869H80.9536V10.6771H80.8778L78.5041 13.8869L77.4984 13.8869Z" fill="white"/>
<path d="M87.4996 10.0162H85.8806V13.8868H84.8649V10.0162H83.2459V9.24512H87.4996V10.0162Z" fill="white"/>
<path d="M92.9652 12.6334C92.8269 13.0576 92.528 13.4245 92.1206 13.6699C91.7132 13.9154 91.2233 14.0238 90.7363 13.9763C90.3976 13.9844 90.061 13.9258 89.7499 13.8047C89.4388 13.6835 89.1606 13.5027 88.9346 13.2747C88.7087 13.0468 88.5404 12.7771 88.4414 12.4846C88.3424 12.192 88.3151 11.8835 88.3615 11.5804C88.3164 11.2764 88.3441 10.9673 88.4429 10.6738C88.5416 10.3804 88.709 10.1095 88.9338 9.87955C89.1586 9.6496 89.4354 9.46593 89.7457 9.34099C90.0559 9.21604 90.3922 9.15274 90.7319 9.15535C92.1624 9.15535 93.0265 10.0377 93.0265 11.4953V11.815H89.3962V11.8663C89.3801 12.0367 89.4037 12.2082 89.4654 12.3699C89.5271 12.5316 89.6256 12.6798 89.7546 12.805C89.8835 12.9302 90.0401 13.0297 90.2141 13.0971C90.3882 13.1645 90.576 13.1982 90.7653 13.1961C91.0079 13.2223 91.2536 13.1828 91.4712 13.0826C91.6887 12.9824 91.8684 12.826 91.9873 12.6334L92.9652 12.6334ZM89.3961 11.1375H91.9918C92.0046 10.9818 91.9812 10.8254 91.9231 10.6783C91.865 10.5313 91.7735 10.3968 91.6544 10.2836C91.5354 10.1703 91.3914 10.0808 91.2317 10.0208C91.0721 9.96077 90.9003 9.93156 90.7274 9.93503C90.5519 9.93288 90.3776 9.96251 90.215 10.0222C90.0524 10.0819 89.9047 10.1704 89.7805 10.2825C89.6564 10.3946 89.5585 10.528 89.4925 10.6748C89.4264 10.8217 89.3937 10.979 89.3962 11.1375H89.3961Z" fill="white"/>
<path d="M97.2668 9.24512H99.5848C100.59 9.24512 101.18 9.70517 101.18 10.4254C101.182 10.654 101.096 10.8761 100.938 11.0545C100.78 11.233 100.559 11.3571 100.312 11.4059V11.4784C100.612 11.4955 100.893 11.6161 101.098 11.8153C101.303 12.0144 101.415 12.2769 101.411 12.5485C101.411 13.3584 100.737 13.8869 99.6082 13.8869H97.2668V9.24512ZM98.2725 9.94828V11.1502H99.2782C99.8914 11.1502 100.185 10.9373 100.185 10.5447C100.185 10.1828 99.9293 9.94827 99.3908 9.94827L98.2725 9.94828ZM98.2725 11.8237V13.1837H99.4756C100.075 13.1837 100.397 12.9447 100.397 12.5057C100.397 12.0412 100.033 11.8237 99.3484 11.8237L98.2725 11.8237Z" fill="white"/>
</g>
<defs>
<clipPath id="clip0_30_315">
<rect width="148" height="40" fill="white"/>
</clipPath>
</defs>
</svg>
