<svg width="136" height="40" viewBox="0 0 136 40" fill="none" xmlns="http://www.w3.org/2000/svg">
<path d="M130.963 40H5.03704C2.2667 40 0 37.75 0 35V5.00002C0 2.25 2.26666 0 5.03704 0H130.963C133.733 0 136 2.25 136 5.00002V35C136 37.75 133.733 40 130.963 40" fill="black"/>
<path d="M130.963 0H5.03704C2.2667 0 0 2.25 0 5.00002V35C0 37.75 2.26666 40 5.03704 40H130.963C133.733 40 136 37.75 136 35V5.00002C136 2.25 133.733 0 130.963 0H130.963ZM130.963 0.799975C133.296 0.799975 135.194 2.68441 135.194 5.00002V35C135.194 37.316 133.296 39.2004 130.963 39.2004H5.03704C2.70431 39.2004 0.805934 37.316 0.805934 35V5.00002C0.805934 2.68441 2.70427 0.80002 5.03704 0.80002H130.963" fill="#A6A6A6"/>
<path d="M50.799 17V9.72727H51.8963V16.0554H55.1918V17H50.799ZM56.2043 17V11.5455H57.2661V17H56.2043ZM56.7405 10.7038C56.5559 10.7038 56.3973 10.6423 56.2647 10.5192C56.1345 10.3937 56.0694 10.2446 56.0694 10.0717C56.0694 9.89654 56.1345 9.7474 56.2647 9.62429C56.3973 9.49882 56.5559 9.43608 56.7405 9.43608C56.9252 9.43608 57.0826 9.49882 57.2128 9.62429C57.3454 9.7474 57.4117 9.89654 57.4117 10.0717C57.4117 10.2446 57.3454 10.3937 57.2128 10.5192C57.0826 10.6423 56.9252 10.7038 56.7405 10.7038ZM59.6023 13.7614V17H58.5405V11.5455H59.5597V12.4332H59.6272C59.7527 12.1444 59.9492 11.9124 60.2167 11.7372C60.4866 11.562 60.8263 11.4744 61.2359 11.4744C61.6075 11.4744 61.9331 11.5526 62.2124 11.7088C62.4918 11.8627 62.7084 12.0923 62.8623 12.3977C63.0162 12.7031 63.0931 13.0807 63.0931 13.5305V17H62.0313V13.6584C62.0313 13.263 61.9283 12.9541 61.7224 12.7315C61.5164 12.5066 61.2335 12.3942 60.8736 12.3942C60.6274 12.3942 60.4084 12.4474 60.2167 12.554C60.0273 12.6605 59.877 12.8168 59.7657 13.0227C59.6568 13.2263 59.6023 13.4725 59.6023 13.7614ZM65.3397 15.1499L65.3326 13.8537H65.5172L67.6905 11.5455H68.9618L66.4831 14.1733H66.3162L65.3397 15.1499ZM64.3631 17V9.72727H65.4249V17H64.3631ZM67.8077 17L65.8546 14.4077L66.5861 13.6655L69.111 17H67.8077ZM74.8142 11.5455V12.3977H71.8348V11.5455H74.8142ZM72.6338 10.2386H73.6956V15.3984C73.6956 15.6044 73.7263 15.7595 73.7879 15.8636C73.8494 15.9654 73.9287 16.0353 74.0258 16.0732C74.1252 16.1087 74.233 16.1264 74.349 16.1264C74.4342 16.1264 74.5088 16.1205 74.5727 16.1087C74.6366 16.0968 74.6863 16.0874 74.7218 16.0803L74.9136 16.9574C74.852 16.9811 74.7644 17.0047 74.6508 17.0284C74.5372 17.0545 74.3951 17.0687 74.2247 17.071C73.9453 17.0758 73.6849 17.026 73.4434 16.9219C73.2019 16.8177 73.0066 16.6567 72.8575 16.4389C72.7083 16.2211 72.6338 15.9477 72.6338 15.6186V10.2386ZM78.0737 17.1101C77.5623 17.1101 77.1161 16.9929 76.7349 16.7585C76.3538 16.5241 76.0578 16.1963 75.8471 15.7749C75.6364 15.3535 75.5311 14.861 75.5311 14.2976C75.5311 13.7318 75.6364 13.237 75.8471 12.8132C76.0578 12.3894 76.3538 12.0604 76.7349 11.826C77.1161 11.5916 77.5623 11.4744 78.0737 11.4744C78.5851 11.4744 79.0313 11.5916 79.4125 11.826C79.7936 12.0604 80.0896 12.3894 80.3003 12.8132C80.511 13.237 80.6163 13.7318 80.6163 14.2976C80.6163 14.861 80.511 15.3535 80.3003 15.7749C80.0896 16.1963 79.7936 16.5241 79.4125 16.7585C79.0313 16.9929 78.5851 17.1101 78.0737 17.1101ZM78.0772 16.2188C78.4087 16.2188 78.6833 16.1312 78.9011 15.956C79.1189 15.7808 79.2799 15.5476 79.3841 15.2564C79.4906 14.9652 79.5439 14.6444 79.5439 14.294C79.5439 13.946 79.4906 13.6264 79.3841 13.3352C79.2799 13.0417 79.1189 12.8061 78.9011 12.6286C78.6833 12.451 78.4087 12.3622 78.0772 12.3622C77.7434 12.3622 77.4664 12.451 77.2463 12.6286C77.0285 12.8061 76.8663 13.0417 76.7598 13.3352C76.6556 13.6264 76.6035 13.946 76.6035 14.294C76.6035 14.6444 76.6556 14.9652 76.7598 15.2564C76.8663 15.5476 77.0285 15.7808 77.2463 15.956C77.4664 16.1312 77.7434 16.2188 78.0772 16.2188ZM53.1768 31L50.2635 20.8182H52.6151L54.3004 27.8928H54.3849L56.2443 20.8182H58.2578L60.1122 27.9077H60.2017L61.8871 20.8182H64.2386L61.3253 31H59.2273L57.2884 24.343H57.2088L55.2749 31H53.1768ZM67.8568 31.1491C67.0713 31.1491 66.3952 30.9901 65.8284 30.6719C65.265 30.3504 64.8308 29.8963 64.5259 29.3097C64.2209 28.7197 64.0685 28.022 64.0685 27.2166C64.0685 26.4311 64.2209 25.7417 64.5259 25.1484C64.8308 24.5552 65.26 24.0928 65.8135 23.7614C66.3703 23.4299 67.0233 23.2642 67.7723 23.2642C68.2761 23.2642 68.7451 23.3454 69.1793 23.5078C69.6168 23.6669 69.9979 23.9072 70.3227 24.2287C70.6509 24.5502 70.9061 24.9545 71.0884 25.4418C71.2707 25.9257 71.3618 26.4924 71.3618 27.142V27.7237H64.9136V26.4112H69.3682C69.3682 26.1063 69.3019 25.8362 69.1693 25.6009C69.0368 25.3655 68.8528 25.1816 68.6175 25.049C68.3855 24.9131 68.1154 24.8452 67.8071 24.8452C67.4856 24.8452 67.2006 24.9197 66.952 25.0689C66.7067 25.2147 66.5145 25.4119 66.3753 25.6605C66.2361 25.9058 66.1648 26.1792 66.1615 26.4808V27.7287C66.1615 28.1065 66.2311 28.433 66.3703 28.7081C66.5128 28.9832 66.7134 29.1953 66.9719 29.3445C67.2304 29.4936 67.537 29.5682 67.8916 29.5682C68.127 29.5682 68.3424 29.535 68.5379 29.4688C68.7335 29.4025 68.9009 29.303 69.0401 29.1705C69.1793 29.0379 69.2853 28.8755 69.3583 28.6832L71.3171 28.8125C71.2176 29.2831 71.0138 29.6941 70.7056 30.0455C70.4006 30.3935 70.0062 30.6652 69.5223 30.8608C69.0417 31.053 68.4866 31.1491 67.8568 31.1491ZM72.6297 31V20.8182H74.7476V24.6463H74.8122C74.905 24.4408 75.0392 24.232 75.2149 24.0199C75.3939 23.8045 75.6259 23.6255 75.9109 23.483C76.1993 23.3371 76.5572 23.2642 76.9848 23.2642C77.5416 23.2642 78.0553 23.41 78.526 23.7017C78.9966 23.9901 79.3728 24.4259 79.6545 25.0092C79.9363 25.5893 80.0771 26.3168 80.0771 27.1918C80.0771 28.0436 79.9396 28.7628 79.6645 29.3494C79.3927 29.9328 79.0215 30.3752 78.5508 30.6768C78.0835 30.9751 77.5598 31.1243 76.9798 31.1243C76.5688 31.1243 76.2192 31.0563 75.9308 30.9205C75.6458 30.7846 75.4121 30.6139 75.2298 30.4084C75.0475 30.1996 74.9083 29.9891 74.8122 29.777H74.7177V31H72.6297ZM74.7028 27.1818C74.7028 27.6359 74.7658 28.032 74.8918 28.37C75.0177 28.7081 75.2 28.9716 75.4386 29.1605C75.6773 29.3461 75.9673 29.4389 76.3087 29.4389C76.6534 29.4389 76.945 29.3445 77.1837 29.1555C77.4223 28.9633 77.6029 28.6982 77.7256 28.3601C77.8515 28.0187 77.9145 27.6259 77.9145 27.1818C77.9145 26.741 77.8532 26.3532 77.7305 26.0185C77.6079 25.6837 77.4273 25.4219 77.1886 25.233C76.95 25.044 76.6567 24.9496 76.3087 24.9496C75.964 24.9496 75.6723 25.0407 75.4337 25.223C75.1983 25.4053 75.0177 25.6638 74.8918 25.9986C74.7658 26.3333 74.7028 26.7277 74.7028 27.1818ZM87.69 25.5412L85.7511 25.6605C85.7179 25.4948 85.6467 25.3456 85.5373 25.2131C85.4279 25.0772 85.2837 24.9695 85.1048 24.8899C84.9291 24.8071 84.7186 24.7656 84.4734 24.7656C84.1452 24.7656 83.8685 24.8352 83.6431 24.9744C83.4177 25.1103 83.305 25.2926 83.305 25.5213C83.305 25.7036 83.378 25.8577 83.5238 25.9837C83.6696 26.1096 83.9199 26.2107 84.2745 26.2869L85.6566 26.5653C86.399 26.7178 86.9525 26.9631 87.3171 27.3011C87.6817 27.6392 87.864 28.0833 87.864 28.6335C87.864 29.134 87.7165 29.5732 87.4215 29.951C87.1299 30.3288 86.7288 30.6238 86.2184 30.8359C85.7113 31.0447 85.1263 31.1491 84.4634 31.1491C83.4525 31.1491 82.6471 30.9387 82.0472 30.5178C81.4506 30.0935 81.101 29.5168 80.9982 28.7876L83.0813 28.6783C83.1443 28.9865 83.2968 29.2218 83.5387 29.3842C83.7807 29.5433 84.0906 29.6229 84.4684 29.6229C84.8396 29.6229 85.1379 29.5516 85.3633 29.4091C85.592 29.2633 85.708 29.076 85.7113 28.8473C85.708 28.6551 85.6268 28.4976 85.4677 28.375C85.3086 28.2491 85.0633 28.1529 84.7319 28.0866L83.4094 27.8232C82.6637 27.674 82.1085 27.4155 81.744 27.0476C81.3827 26.6797 81.2021 26.2107 81.2021 25.6406C81.2021 25.1501 81.3346 24.7275 81.5998 24.3729C81.8683 24.0182 82.2444 23.7448 82.7283 23.5526C83.2156 23.3603 83.7856 23.2642 84.4386 23.2642C85.4031 23.2642 86.1621 23.468 86.7156 23.8757C87.2724 24.2834 87.5972 24.8385 87.69 25.5412ZM89.0436 31V23.3636H91.1615V31H89.0436ZM90.1075 22.3793C89.7927 22.3793 89.5226 22.2749 89.2972 22.0661C89.0751 21.8539 88.9641 21.6004 88.9641 21.3054C88.9641 21.0137 89.0751 20.7635 89.2972 20.5547C89.5226 20.3426 89.7927 20.2365 90.1075 20.2365C90.4224 20.2365 90.6909 20.3426 90.9129 20.5547C91.1383 20.7635 91.251 21.0137 91.251 21.3054C91.251 21.6004 91.1383 21.8539 90.9129 22.0661C90.6909 22.2749 90.4224 22.3793 90.1075 22.3793ZM96.7659 23.3636V24.9545H92.1671V23.3636H96.7659ZM93.2112 21.5341H95.3291V28.6534C95.3291 28.849 95.3589 29.0014 95.4186 29.1108C95.4782 29.2169 95.5611 29.2914 95.6671 29.3345C95.7765 29.3776 95.9025 29.3991 96.045 29.3991C96.1444 29.3991 96.2438 29.3909 96.3433 29.3743C96.4427 29.3544 96.5189 29.3395 96.572 29.3295L96.9051 30.9055C96.799 30.9387 96.6499 30.9768 96.4576 31.0199C96.2654 31.0663 96.0317 31.0945 95.7566 31.1044C95.2462 31.1243 94.7988 31.0563 94.4143 30.9006C94.0331 30.7448 93.7365 30.5028 93.5244 30.1747C93.3123 29.8466 93.2079 29.4323 93.2112 28.9318V21.5341ZM101.39 31.1491C100.604 31.1491 99.9279 30.9901 99.3612 30.6719C98.7977 30.3504 98.3635 29.8963 98.0586 29.3097C97.7537 28.7197 97.6012 28.022 97.6012 27.2166C97.6012 26.4311 97.7537 25.7417 98.0586 25.1484C98.3635 24.5552 98.7927 24.0928 99.3462 23.7614C99.9031 23.4299 100.556 23.2642 101.305 23.2642C101.809 23.2642 102.278 23.3454 102.712 23.5078C103.15 23.6669 103.531 23.9072 103.855 24.2287C104.184 24.5502 104.439 24.9545 104.621 25.4418C104.803 25.9257 104.895 26.4924 104.895 27.142V27.7237H98.4464V26.4112H102.901C102.901 26.1063 102.835 25.8362 102.702 25.6009C102.569 25.3655 102.386 25.1816 102.15 25.049C101.918 24.9131 101.648 24.8452 101.34 24.8452C101.018 24.8452 100.733 24.9197 100.485 25.0689C100.239 25.2147 100.047 25.4119 99.908 25.6605C99.7688 25.9058 99.6976 26.1792 99.6943 26.4808V27.7287C99.6943 28.1065 99.7639 28.433 99.9031 28.7081C100.046 28.9832 100.246 29.1953 100.505 29.3445C100.763 29.4936 101.07 29.5682 101.424 29.5682C101.66 29.5682 101.875 29.535 102.071 29.4688C102.266 29.4025 102.434 29.303 102.573 29.1705C102.712 29.0379 102.818 28.8755 102.891 28.6832L104.85 28.8125C104.75 29.2831 104.547 29.6941 104.238 30.0455C103.933 30.3935 103.539 30.6652 103.055 30.8608C102.574 31.053 102.019 31.1491 101.39 31.1491Z" fill="white"/>
<path d="M29 21V27C29 27.5304 28.7893 28.0391 28.4142 28.4142C28.0391 28.7893 27.5304 29 27 29H16C15.4696 29 14.9609 28.7893 14.5858 28.4142C14.2107 28.0391 14 27.5304 14 27V16C14 15.4696 14.2107 14.9609 14.5858 14.5858C14.9609 14.2107 15.4696 14 16 14H22" stroke="white" stroke-width="2" stroke-linecap="round" stroke-linejoin="round"/>
<path d="M26 11H32V17" stroke="white" stroke-width="2" stroke-linecap="round" stroke-linejoin="round"/>
<path d="M21 22L32 11" stroke="white" stroke-width="2" stroke-linecap="round" stroke-linejoin="round"/>
</svg>
