<svg width="108" height="20" viewBox="0 0 108 20" fill="none" xmlns="http://www.w3.org/2000/svg">
<path d="M3.99661 2.59203H0V0.210449H10.8927V2.59203H6.89612V12.8025H3.99661V2.59203Z" fill="#2D66EE"/>
<path d="M23.8883 0.210449V12.8025H21.0019V7.64466H15.3335V12.8025H12.434V0.210449H15.3335V5.18413H21.0019V0.210449H23.8883Z" fill="#2D66EE"/>
<path d="M34.8985 10.0263C35.4993 9.6842 35.9695 9.19736 36.3091 8.5921C36.6356 7.98683 36.8054 7.28946 36.8054 6.51315C36.8054 5.72368 36.6356 5.03947 36.3091 4.42105C35.9695 3.81578 35.4993 3.32894 34.8985 3C34.3108 2.65789 33.6447 2.48684 32.9002 2.48684C32.1688 2.48684 31.5027 2.65789 30.9019 3C30.3142 3.32894 29.844 3.81578 29.5044 4.42105C29.1648 5.03947 28.995 5.72368 28.995 6.51315C28.995 7.28946 29.1648 7.98683 29.5044 8.5921C29.844 9.19736 30.3142 9.6842 30.9019 10.0263C31.5027 10.3684 32.1688 10.5395 32.9002 10.5395C33.6447 10.5395 34.3108 10.3684 34.8985 10.0263ZM29.3999 12.171C28.355 11.6052 27.5453 10.8289 26.9575 9.84209C26.3698 8.85525 26.0694 7.73683 26.0694 6.51315C26.0694 5.27631 26.3698 4.15789 26.9575 3.17105C27.5453 2.18421 28.355 1.40789 29.3999 0.842104C30.4448 0.276315 31.6072 0 32.9002 0C34.2063 0 35.3687 0.276315 36.4005 0.842104C37.4323 1.40789 38.2551 2.18421 38.8429 3.17105C39.4437 4.15789 39.7441 5.27631 39.7441 6.51315C39.7441 7.73683 39.4437 8.85525 38.8429 9.84209C38.2551 10.8289 37.4323 11.6052 36.4005 12.171C35.3687 12.7368 34.2063 13.0131 32.9002 13.0131C31.6072 13.0131 30.4448 12.7368 29.3999 12.171Z" fill="#2D66EE"/>
<path d="M43.2966 11.5262C42.304 10.5262 41.8077 9.10517 41.8077 7.26307V0.210449H44.6942V7.15781C44.6942 9.4078 45.6215 10.5394 47.4761 10.5394C48.3904 10.5394 49.0695 10.2631 49.5528 9.71043C50.023 9.17096 50.2581 8.3157 50.2581 7.15781V0.210449H53.1184V7.26307C53.1184 9.10517 52.6221 10.5262 51.6295 11.5262C50.6368 12.5131 49.2524 13.0131 47.463 13.0131C45.6737 13.0131 44.2893 12.5131 43.2966 11.5262Z" fill="#2D66EE"/>
<path d="M57.2195 12.6052C56.2922 12.3421 55.5477 11.9868 54.9861 11.5526L55.9787 9.36841C56.5142 9.76315 57.1411 10.0789 57.8856 10.3158C58.617 10.5526 59.3615 10.6842 60.0929 10.6842C60.9157 10.6842 61.5165 10.5526 61.9214 10.3158C62.3132 10.0658 62.5091 9.73683 62.5091 9.32894C62.5091 9.02631 62.3916 8.77631 62.1565 8.57894C61.9214 8.38157 61.621 8.22367 61.2684 8.10525C60.9027 7.98683 60.4063 7.85525 59.7925 7.71052C58.8391 7.48683 58.0554 7.26315 57.4546 7.02631C56.8538 6.80262 56.3314 6.4342 55.9004 5.9342C55.4563 5.4342 55.2473 4.76315 55.2473 3.92105C55.2473 3.18421 55.4432 2.52631 55.8351 1.93421C56.2269 1.3421 56.8146 0.86842 57.6113 0.526315C58.395 0.171052 59.3615 0 60.5108 0C61.3075 0 62.0781 0.0921052 62.8487 0.289473C63.6062 0.473684 64.2723 0.749999 64.847 1.11842L63.9458 3.32894C62.7965 2.67105 61.6471 2.3421 60.4847 2.3421C59.6749 2.3421 59.0872 2.47368 58.6954 2.73684C58.3036 3 58.1207 3.3421 58.1207 3.77631C58.1207 4.21052 58.3427 4.52631 58.7868 4.73684C59.2309 4.94736 59.91 5.15789 60.8243 5.35526C61.7777 5.57894 62.5614 5.81578 63.1622 6.03947C63.776 6.26315 64.2854 6.63157 64.7295 7.11841C65.1605 7.60525 65.3825 8.27631 65.3825 9.11841C65.3825 9.82894 65.1735 10.4868 64.7817 11.0789C64.3768 11.671 63.776 12.1447 62.9924 12.4868C62.1826 12.8421 61.2161 13.0131 60.0798 13.0131C59.0872 13.0131 58.1338 12.8816 57.2195 12.6052Z" fill="#2D66EE"/>
<path d="M92.4837 0.210449V12.8025H90.1067L83.8766 5.15781V12.8025H81.0294V0.210449H83.4195L89.6234 7.85518V0.210449H92.4837Z" fill="#2D66EE"/>
<path d="M107.138 3.19729C106.563 2.24992 105.754 1.52624 104.709 0.999922C103.664 0.473607 102.475 0.210449 101.117 0.210449H95.4355V2.60518H100.973C102.227 2.60518 103.22 2.96045 103.964 3.65782C104.709 4.35518 105.074 5.31571 105.074 6.51308C105.074 7.71044 104.709 8.65781 103.964 9.35518C103.22 10.0525 102.227 10.4078 100.973 10.4078H95.4355V12.8025H101.117C102.475 12.8025 103.664 12.5394 104.709 12.0131C105.754 11.4999 106.563 10.7631 107.138 9.81571C107.713 8.86834 108 7.76308 108 6.51308C108 5.24992 107.713 4.14466 107.138 3.19729Z" fill="#2D66EE"/>
<path d="M74.1333 0.210449H71.286L65.709 12.8025H68.6738L69.784 10.1052L70.7113 7.89466L72.6966 3.07887L74.6688 7.89466L75.583 10.1052L76.6932 12.8025H79.7233L74.1333 0.210449Z" fill="#2D66EE"/>
<path d="M28.969 19.5921C29.191 19.4605 29.3608 19.2895 29.4914 19.079C29.622 18.8553 29.6743 18.6184 29.6743 18.3421C29.6743 18.079 29.622 17.829 29.4914 17.6053C29.3608 17.3948 29.191 17.2237 28.969 17.0921C28.76 16.9737 28.5118 16.9079 28.2376 16.9079C27.9633 16.9079 27.7282 16.9737 27.5062 17.0921C27.2841 17.2237 27.1143 17.3948 26.9837 17.6053C26.8531 17.829 26.7878 18.079 26.7878 18.3421C26.7878 18.6184 26.8531 18.8553 26.9837 19.079C27.1143 19.2895 27.2841 19.4605 27.5062 19.5921C27.7282 19.7105 27.9633 19.7763 28.2376 19.7763C28.5118 19.7763 28.76 19.7105 28.969 19.5921ZM27.3756 19.7763C27.1274 19.6316 26.9184 19.4342 26.7748 19.1842C26.6311 18.9342 26.5527 18.6579 26.5527 18.3421C26.5527 18.0395 26.6311 17.75 26.7748 17.5C26.9184 17.25 27.1274 17.0527 27.3756 16.9079C27.6368 16.7632 27.9241 16.6974 28.2376 16.6974C28.551 16.6974 28.8384 16.7632 29.0996 16.9079C29.3477 17.0527 29.5567 17.25 29.7004 17.5C29.844 17.75 29.9224 18.0263 29.9224 18.3421C29.9224 18.6579 29.844 18.9342 29.7004 19.1974C29.5567 19.4474 29.3477 19.6448 29.0996 19.7763C28.8384 19.9211 28.551 20 28.2376 20C27.9241 20 27.6368 19.9211 27.3756 19.7763Z" fill="#2D66EE"/>
<path d="M30.9673 16.9343V18.3158H32.6913V18.5395H30.9673V19.9737H30.7322V16.7106H32.9003V16.9343H30.9673Z" fill="#2D66EE"/>
<path d="M37.4715 16.7106V19.9737H37.2364V18.4211H35.0814V19.9737H34.8463V16.7106H35.0814V18.2106H37.2364V16.7106H37.4715Z" fill="#2D66EE"/>
<path d="M40.5147 18.8553L39.6657 16.9737L38.8168 18.8553H40.5147ZM40.6061 19.0527H38.7253L38.3074 19.9737H38.0592L39.5482 16.7106H39.7833L41.2722 19.9737H41.011L40.6061 19.0527Z" fill="#2D66EE"/>
<path d="M43.806 18.4606C43.9889 18.3158 44.0803 18.0921 44.0803 17.8158C44.0803 17.5264 43.9889 17.3158 43.806 17.1579C43.6232 17 43.3619 16.9343 43.0093 16.9343H42.095V18.6974H43.0093C43.3619 18.6974 43.6232 18.6185 43.806 18.4606ZM43.9758 17C44.1978 17.1974 44.3154 17.4737 44.3154 17.8158C44.3154 18.1579 44.1978 18.4211 43.9758 18.6185C43.7407 18.8158 43.4273 18.9079 43.0093 18.9079H42.095V19.9737H41.86V16.7106H43.0093C43.4273 16.7106 43.7407 16.8158 43.9758 17Z" fill="#2D66EE"/>
<path d="M47.0582 18.4606C47.241 18.3158 47.3325 18.0921 47.3325 17.8158C47.3325 17.5264 47.241 17.3158 47.0582 17.1579C46.8753 17 46.6141 16.9343 46.2745 16.9343H45.3472V18.6974H46.2745C46.6141 18.6974 46.8753 18.6185 47.0582 18.4606ZM47.228 17C47.4631 17.1974 47.5806 17.4737 47.5806 17.8158C47.5806 18.1579 47.4631 18.4211 47.228 18.6185C46.9929 18.8158 46.6794 18.9079 46.2745 18.9079H45.3472V19.9737H45.1121V16.7106H46.2745C46.6794 16.7106 46.9929 16.8158 47.228 17Z" fill="#2D66EE"/>
<path d="M49.3699 18.8553V19.9737H49.1348V18.8553L47.8288 16.7106H48.09L49.2524 18.6316L50.4279 16.7106H50.663L49.3699 18.8553Z" fill="#2D66EE"/>
<path d="M52.9486 19.7763C52.7004 19.6448 52.5045 19.4474 52.3478 19.1974C52.2041 18.9342 52.1388 18.6579 52.1388 18.3421C52.1388 18.0263 52.2041 17.75 52.3478 17.5C52.5045 17.25 52.7004 17.0527 52.9486 16.9079C53.2098 16.7632 53.4971 16.6974 53.8106 16.6974C54.0457 16.6974 54.2546 16.7237 54.4506 16.8027C54.6595 16.8816 54.8163 17 54.9599 17.1448L54.8163 17.3027C54.555 17.0395 54.2285 16.9079 53.8236 16.9079C53.5494 16.9079 53.3012 16.9737 53.0792 17.0921C52.8571 17.2237 52.6873 17.3948 52.5567 17.6053C52.4261 17.829 52.3739 18.079 52.3739 18.3421C52.3739 18.6184 52.4261 18.8553 52.5567 19.079C52.6873 19.2895 52.8571 19.4605 53.0792 19.5921C53.3012 19.7105 53.5494 19.7763 53.8236 19.7763C54.2155 19.7763 54.555 19.6448 54.8163 19.3816L54.9599 19.5395C54.8163 19.6842 54.6595 19.8027 54.4506 19.8816C54.2546 19.9605 54.0457 20 53.8106 20C53.4971 20 53.2098 19.9211 52.9486 19.7763Z" fill="#2D66EE"/>
<path d="M56.057 19.6316C55.835 19.3948 55.7175 19.0527 55.7175 18.5921V16.7106H55.9526V18.579C55.9526 18.9869 56.044 19.2764 56.2268 19.4737C56.4097 19.6843 56.6709 19.7764 57.0105 19.7764C57.3631 19.7764 57.6243 19.6843 57.8072 19.4737C57.977 19.2764 58.0684 18.9869 58.0684 18.579V16.7106H58.3035V18.5921C58.3035 19.0527 58.199 19.3948 57.9639 19.6316C57.7419 19.8816 57.4154 20 57.0105 20C56.6056 20 56.2791 19.8816 56.057 19.6316Z" fill="#2D66EE"/>
<path d="M59.5835 19.8684C59.3746 19.7895 59.2048 19.6842 59.0872 19.5527L59.1917 19.3816C59.2962 19.5 59.4529 19.5921 59.6488 19.6711C59.8447 19.75 60.0407 19.7895 60.2496 19.7895C60.5631 19.7895 60.7982 19.7237 60.9549 19.6053C61.1116 19.4869 61.19 19.3421 61.19 19.1448C61.19 19 61.1508 18.8816 61.0594 18.8027C60.981 18.7105 60.8765 18.6448 60.759 18.6053C60.6284 18.5527 60.4586 18.5 60.2496 18.4605C60.0145 18.3948 59.8317 18.3421 59.688 18.2895C59.5443 18.2237 59.4137 18.1448 59.3223 18.0263C59.2178 17.9079 59.1656 17.75 59.1656 17.5527C59.1656 17.3948 59.2048 17.25 59.2962 17.1184C59.3746 16.9869 59.5052 16.8816 59.675 16.8027C59.8447 16.7369 60.0537 16.6974 60.3149 16.6974C60.4978 16.6974 60.6676 16.7237 60.8374 16.7763C61.0071 16.829 61.1639 16.8948 61.2945 16.9869L61.2031 17.1711C61.0724 17.0921 60.9288 17.0132 60.7721 16.9737C60.6153 16.9211 60.4717 16.9079 60.3149 16.9079C60.0145 16.9079 59.7925 16.9605 59.6358 17.079C59.479 17.2105 59.4007 17.3553 59.4007 17.5527C59.4007 17.6974 59.4399 17.8158 59.5313 17.9079C59.6096 17.9869 59.7141 18.0527 59.8447 18.1053C59.9623 18.1448 60.1321 18.1974 60.341 18.25C60.5761 18.3158 60.7721 18.3684 60.9157 18.4211C61.0463 18.4737 61.1769 18.5658 61.2684 18.6711C61.3728 18.7895 61.4251 18.9474 61.4251 19.1316C61.4251 19.2895 61.3859 19.4342 61.2945 19.5658C61.2161 19.6974 61.0855 19.8027 60.9027 19.8816C60.7329 19.9605 60.5108 20 60.2627 20C60.0276 20 59.7925 19.9605 59.5835 19.8684Z" fill="#2D66EE"/>
<path d="M62.7964 16.9343H61.634V16.7106H64.194V16.9343H63.0315V19.9737H62.7964V16.9343Z" fill="#2D66EE"/>
<path d="M66.8322 19.5921C67.0543 19.4605 67.2241 19.2895 67.3547 19.079C67.4853 18.8553 67.5375 18.6184 67.5375 18.3421C67.5375 18.079 67.4853 17.829 67.3547 17.6053C67.2241 17.3948 67.0543 17.2237 66.8322 17.0921C66.6233 16.9737 66.3751 16.9079 66.1008 16.9079C65.8266 16.9079 65.5915 16.9737 65.3694 17.0921C65.1474 17.2237 64.9776 17.3948 64.847 17.6053C64.7164 17.829 64.6511 18.079 64.6511 18.3421C64.6511 18.6184 64.7164 18.8553 64.847 19.079C64.9776 19.2895 65.1474 19.4605 65.3694 19.5921C65.5915 19.7105 65.8266 19.7763 66.1008 19.7763C66.3751 19.7763 66.6233 19.7105 66.8322 19.5921ZM65.2388 19.7763C64.9907 19.6316 64.7817 19.4342 64.638 19.1842C64.4944 18.9342 64.416 18.6579 64.416 18.3421C64.416 18.0395 64.4944 17.75 64.638 17.5C64.7817 17.25 64.9907 17.0527 65.2388 16.9079C65.5001 16.7632 65.7874 16.6974 66.1008 16.6974C66.4143 16.6974 66.7016 16.7632 66.9629 16.9079C67.211 17.0527 67.42 17.25 67.5636 17.5C67.7073 17.75 67.7857 18.0263 67.7857 18.3421C67.7857 18.6579 67.7073 18.9342 67.5636 19.1974C67.42 19.4474 67.211 19.6448 66.9629 19.7763C66.7016 19.9211 66.4143 20 66.1008 20C65.7874 20 65.5001 19.9211 65.2388 19.7763Z" fill="#2D66EE"/>
<path d="M71.6648 19.9737L71.6517 17.1843L70.3064 19.5395H70.1889L68.8306 17.1974V19.9737H68.5955V16.7106H68.8044L70.2411 19.2369L71.6909 16.7106H71.8868V19.9737H71.6648Z" fill="#2D66EE"/>
<path d="M75.2434 19.7632V19.9737H73.0231V16.7106H75.1781V16.9343H73.2582V18.2106H74.9692V18.4211H73.2582V19.7632H75.2434Z" fill="#2D66EE"/>
<path d="M77.2679 18.6974C77.6075 18.6974 77.8687 18.6185 78.0515 18.4737C78.2344 18.3158 78.3258 18.0921 78.3258 17.8158C78.3258 17.5264 78.2344 17.3158 78.0515 17.1579C77.8687 17 77.6075 16.9343 77.2679 16.9343H76.3406V18.6974H77.2679ZM78.3519 19.9737L77.5813 18.8816C77.4638 18.8948 77.3593 18.9079 77.2679 18.9079H76.3406V19.9737H76.1055V16.7106H77.2679C77.6728 16.7106 77.9862 16.8158 78.2213 17C78.4564 17.1974 78.574 17.4737 78.574 17.8158C78.574 18.0658 78.5087 18.2895 78.3781 18.4606C78.2474 18.6316 78.0515 18.7632 77.8164 18.829L78.6262 19.9737H78.3519Z" fill="#2D66EE"/>
<path d="M79.6058 19.8684C79.3968 19.7895 79.227 19.6842 79.1095 19.5527L79.214 19.3816C79.3315 19.5 79.4752 19.5921 79.6711 19.6711C79.867 19.75 80.0629 19.7895 80.2719 19.7895C80.5853 19.7895 80.8204 19.7237 80.9771 19.6053C81.1339 19.4869 81.2122 19.3421 81.2122 19.1448C81.2122 19 81.1731 18.8816 81.0816 18.8027C81.0033 18.7105 80.8988 18.6448 80.7812 18.6053C80.6506 18.5527 80.4939 18.5 80.2719 18.4605C80.0368 18.3948 79.8539 18.3421 79.7103 18.2895C79.5666 18.2237 79.449 18.1448 79.3446 18.0263C79.2401 17.9079 79.1878 17.75 79.1878 17.5527C79.1878 17.3948 79.2401 17.25 79.3184 17.1184C79.3968 16.9869 79.5274 16.8816 79.6972 16.8027C79.867 16.7369 80.089 16.6974 80.3372 16.6974C80.52 16.6974 80.6898 16.7237 80.8596 16.7763C81.0424 16.829 81.1861 16.8948 81.3167 16.9869L81.2253 17.1711C81.0947 17.0921 80.951 17.0132 80.7943 16.9737C80.6376 16.9211 80.4939 16.9079 80.3372 16.9079C80.0368 16.9079 79.8147 16.9605 79.658 17.079C79.5013 17.2105 79.4229 17.3553 79.4229 17.5527C79.4229 17.6974 79.4752 17.8158 79.5535 17.9079C79.6319 17.9869 79.7364 18.0527 79.867 18.1053C79.9845 18.1448 80.1543 18.1974 80.3633 18.25C80.5984 18.3158 80.7943 18.3684 80.938 18.4211C81.0816 18.4737 81.1992 18.5658 81.2906 18.6711C81.3951 18.7895 81.4473 18.9474 81.4473 19.1316C81.4473 19.2895 81.4081 19.4342 81.3167 19.5658C81.2384 19.6974 81.1077 19.8027 80.9249 19.8816C80.7551 19.9605 80.5331 20 80.2849 20C80.0498 20 79.8147 19.9605 79.6058 19.8684Z" fill="#2D66EE"/>
</svg>
