<svg xmlns="http://www.w3.org/2000/svg" xml:space="preserve" width="108" height="30" version="1.1" 
style="shape-rendering:geometricPrecision; text-rendering:geometricPrecision; image-rendering:optimizeQuality; fill-rule:evenodd; clip-rule:evenodd"
viewBox="0 0 1187.42 1327.08"
preserveAspectRatio="xMidYMid meet"
 xmlns:xlink="http://www.w3.org/1999/xlink"
 xmlns:xodm="http://www.corel.com/coreldraw/odm/2003">
 <defs>
  <style type="text/css">
   <![CDATA[
    .fil0 {fill:#FE4502}
   ]]>
  </style>
 </defs>
 <g id="Слой_x0020_1">
  <metadata id="CorelCorpID_0Corel-Layer"/>
  <path class="fil0" d="M123.03 273.47c-6.21,5.05 -11.92,9.95 -21.32,18.09 -30.29,31.71 -82.08,67.32 -98.79,195.52 -23.5,180.31 98.84,278.88 232.1,352.72 68.09,37.73 100.48,65.33 200.02,-23.2 -41.71,-24.65 -181.01,-106.31 -225.64,-138.38 -81.42,-58.5 -112.7,-164.4 -53.75,-254.78 43.32,-66.4 139.45,-110.3 206.14,-156.12 73.11,-50.23 144.25,-93.8 215.76,-142.58 22.25,10.32 127.25,72.97 146.99,84.04 -26.1,20.28 -178.76,114.15 -217.6,139.85 -98.17,70.42 -311.62,158.41 -137.78,257.11 37.34,21.45 74.27,44.2 110.66,64.74 66.11,37.31 178.36,98.05 233.79,130.79 -22.88,13.81 -261.17,166.06 -309.37,198.32 -30.24,20.48 -121.35,60.05 -88.07,150.71 16.83,48.62 85.71,79.32 136.16,108.73 177.49,103.47 172.29,84.04 338.25,-25.1 94.8,-62.35 211.39,-129.85 296,-198.25l13.56 -14.02c115.94,-118.28 112.21,-290.52 13.65,-418.21 -43.96,-56.96 -105.68,-85.36 -169.85,-122.2 -49.29,-27.55 -96.62,-56.26 -194.97,33.47 45.33,22.37 186.02,96.83 232.08,134.07 88.32,67.82 113.78,154.29 55.71,252.71 -32.83,56.45 -146.29,117.39 -205.83,156.63 -61.35,40.44 -166.47,111.29 -223.64,151.44 -36.43,-22.04 -97.58,-58.65 -127.69,-77.51l-14.16 -10.26 13.38 -10.84c31.58,-22.8 75.38,-50.67 103.13,-69.88 72.17,-49.95 291.75,-169.85 300.76,-218.13 14.59,-78.1 -82.73,-113.39 -177.2,-167.25 -35.07,-20 -201.74,-118.73 -221.81,-131.19 19.35,-14.6 256.8,-166.02 297.91,-193.62 54.47,-36.57 112.1,-62.12 94.71,-144.2 -12.67,-59.8 -81.49,-84.18 -127.21,-112.68 -179,-111.61 -171.81,-87.83 -336.8,10.57 -45.14,26.92 -101.39,64.5 -144.31,94.96 -26.69,18.94 -121.81,78.07 -144.96,93.94z"/>
 </g>
</svg>