<svg width="24" height="24" viewBox="0 0 24 24" fill="none" xmlns="http://www.w3.org/2000/svg">
<path d="M14.2977 1.4349C15.0301 1.60584 15.6748 1.97808 16.189 2.52685C16.7103 3.08316 17.0136 3.67256 17.34 4.82473L18.1309 7.76912C18.2738 8.30258 17.9572 8.85092 17.4238 8.99386C16.8903 9.1368 16.342 8.82022 16.199 8.28676L15.4786 5.59807L15.366 5.19577C15.151 4.46719 14.9894 4.17165 14.7296 3.89437C14.4856 3.63402 14.1906 3.46365 13.8431 3.38255C13.4731 3.29618 13.1363 3.30404 12.3979 3.48216L11.9932 3.58576L6.86571 4.95967C6.01172 5.18849 5.61196 5.35428 5.35689 5.54286L5.29595 5.59053L5.16201 5.70865C4.90166 5.95261 4.73129 6.24769 4.65019 6.59514C4.55662 6.99602 4.57364 7.35779 4.79792 8.23359L7.5214 18.4022L7.63404 18.8045C7.84901 19.5331 8.01056 19.8286 8.27038 20.1059C8.51434 20.3662 8.80943 20.5366 9.15688 20.6177C9.55809 20.7113 9.90219 20.694 10.7642 20.4775C11.2999 20.343 11.8432 20.6682 11.9777 21.2038C12.1122 21.7395 11.787 22.2828 11.2514 22.4173C10.1026 22.7058 9.44564 22.7388 8.70228 22.5653C7.96992 22.3944 7.32518 22.0222 6.81097 21.4734C6.28969 20.9171 5.9864 20.3277 5.65994 19.1755L2.92155 8.96272C2.56692 7.63921 2.51688 6.93598 2.70254 6.14054C2.85449 5.48956 3.16549 4.9078 3.63267 4.41217L3.81518 4.23038L3.99402 4.07265C4.48972 3.66101 5.07127 3.38829 6.08534 3.10024L6.34807 3.02781L11.4755 1.65391C12.799 1.29928 13.5023 1.24924 14.2977 1.4349ZM18.3684 11.0001C20.3686 11.0001 22 12.5916 22 14.5674C22 16.4764 21.2284 17.4184 18.2201 19.701L16.8923 20.7085C16.3648 21.1088 15.6352 21.1088 15.1077 20.7085L13.7799 19.701C10.7716 17.4184 9.99999 16.4764 9.99999 14.5674C9.99999 12.5916 11.6314 11.0001 13.6316 11.0001C14.4608 11.0001 15.2275 11.2238 15.914 11.6598L16 11.7171L16.086 11.6598C16.7039 11.2674 17.3867 11.047 18.1215 11.0068L18.3684 11.0001Z" fill="#2D66EE"/>
</svg>
