<svg width="40" height="30" viewBox="0 0 40 30" fill="none" xmlns="http://www.w3.org/2000/svg">
<g clip-path="url(#clip0_1272_594)">
<path d="M0 20H40V30H0V20Z" fill="#1EB53A"/>
<path d="M0 0H40V10H0V0Z" fill="#0099B5"/>
<path d="M0 9.6001H40V20.4001H0V9.6001Z" fill="#CE1126"/>
<path d="M0 10.2002H40V19.8002H0V10.2002Z" fill="white"/>
<path d="M8.4 8.4002C10.3882 8.4002 12 6.78842 12 4.8002C12 2.81197 10.3882 1.2002 8.4 1.2002C6.41177 1.2002 4.8 2.81197 4.8 4.8002C4.8 6.78842 6.41177 8.4002 8.4 8.4002Z" fill="white"/>
<path d="M9.6 8.4002C11.5882 8.4002 13.2 6.78842 13.2 4.8002C13.2 2.81197 11.5882 1.2002 9.6 1.2002C7.61178 1.2002 6 2.81197 6 4.8002C6 6.78842 7.61178 8.4002 9.6 8.4002Z" fill="#0099B5"/>
<path d="M16.3187 6.96094L16.0907 7.64494L16.4387 7.76494" fill="white"/>
<path d="M16.3187 6.96094L16.5467 7.64494L16.1987 7.76494" fill="white"/>
<path d="M17.0035 7.45854L16.2825 7.45307L16.2759 7.82112" fill="white"/>
<path d="M17.0035 7.45845L16.4234 7.88666L16.2018 7.59277" fill="white"/>
<path d="M15.634 7.45845L16.2141 7.88666L16.4357 7.59277" fill="white"/>
<path d="M15.634 7.45854L16.355 7.45307L16.3616 7.82112" fill="white"/>
<path d="M16.742 8.26341L16.5244 7.57603L16.1723 7.68349" fill="white"/>
<path d="M16.742 8.26345L16.1555 7.84409L16.3665 7.54246" fill="white"/>
<path d="M15.8955 8.26345L16.482 7.84409L16.271 7.54246" fill="white"/>
<path d="M15.8955 8.26341L16.1131 7.57603L16.4652 7.68349" fill="white"/>
<path d="M16.3187 4.08105L16.0907 4.76505L16.4387 4.88505" fill="white"/>
<path d="M16.3187 4.08105L16.5467 4.76505L16.1987 4.88505" fill="white"/>
<path d="M17.0035 4.57866L16.2825 4.57318L16.2759 4.94123" fill="white"/>
<path d="M17.0035 4.57857L16.4234 5.00678L16.2018 4.71289" fill="white"/>
<path d="M15.634 4.57857L16.2141 5.00678L16.4357 4.71289" fill="white"/>
<path d="M15.634 4.57866L16.355 4.57318L16.3616 4.94123" fill="white"/>
<path d="M16.742 5.38353L16.5244 4.69614L16.1723 4.80361" fill="white"/>
<path d="M16.742 5.38356L16.1555 4.96421L16.3665 4.66258" fill="white"/>
<path d="M15.8955 5.38356L16.482 4.96421L16.271 4.66258" fill="white"/>
<path d="M15.8955 5.38353L16.1131 4.69614L16.4652 4.80361" fill="white"/>
<path d="M16.3187 1.20117L16.0907 1.88517L16.4387 2.00517" fill="white"/>
<path d="M16.3187 1.20117L16.5467 1.88517L16.1987 2.00517" fill="white"/>
<path d="M17.0035 1.69877L16.2825 1.6933L16.2759 2.06135" fill="white"/>
<path d="M17.0035 1.69869L16.4234 2.12689L16.2018 1.83301" fill="white"/>
<path d="M15.634 1.69869L16.2141 2.12689L16.4357 1.83301" fill="white"/>
<path d="M15.634 1.69877L16.355 1.6933L16.3616 2.06135" fill="white"/>
<path d="M16.742 2.50364L16.5244 1.81626L16.1723 1.92373" fill="white"/>
<path d="M16.742 2.50368L16.1555 2.08433L16.3665 1.7827" fill="white"/>
<path d="M15.8955 2.50368L16.482 2.08433L16.271 1.7827" fill="white"/>
<path d="M15.8955 2.50364L16.1131 1.81626L16.4652 1.92373" fill="white"/>
<path d="M19.1988 6.96094L18.9708 7.64494L19.3188 7.76494" fill="white"/>
<path d="M19.1988 6.96094L19.4268 7.64494L19.0788 7.76494" fill="white"/>
<path d="M19.8835 7.45854L19.1625 7.45307L19.1559 7.82112" fill="white"/>
<path d="M19.8835 7.45845L19.3034 7.88666L19.0818 7.59277" fill="white"/>
<path d="M18.514 7.45845L19.0941 7.88666L19.3157 7.59277" fill="white"/>
<path d="M18.514 7.45854L19.235 7.45307L19.2416 7.82112" fill="white"/>
<path d="M19.622 8.26341L19.4044 7.57603L19.0523 7.68349" fill="white"/>
<path d="M19.622 8.26345L19.0355 7.84409L19.2465 7.54246" fill="white"/>
<path d="M18.7755 8.26345L19.362 7.84409L19.151 7.54246" fill="white"/>
<path d="M18.7755 8.26341L18.9931 7.57603L19.3452 7.68349" fill="white"/>
<path d="M19.1988 4.08105L18.9708 4.76505L19.3188 4.88505" fill="white"/>
<path d="M19.1988 4.08105L19.4268 4.76505L19.0788 4.88505" fill="white"/>
<path d="M19.8835 4.57866L19.1625 4.57318L19.1559 4.94123" fill="white"/>
<path d="M19.8835 4.57857L19.3034 5.00678L19.0818 4.71289" fill="white"/>
<path d="M18.514 4.57857L19.0941 5.00678L19.3157 4.71289" fill="white"/>
<path d="M18.514 4.57866L19.235 4.57318L19.2416 4.94123" fill="white"/>
<path d="M19.622 5.38353L19.4044 4.69614L19.0523 4.80361" fill="white"/>
<path d="M19.622 5.38356L19.0355 4.96421L19.2465 4.66258" fill="white"/>
<path d="M18.7755 5.38356L19.362 4.96421L19.151 4.66258" fill="white"/>
<path d="M18.7755 5.38353L18.9931 4.69614L19.3452 4.80361" fill="white"/>
<path d="M19.1988 1.20117L18.9708 1.88517L19.3188 2.00517" fill="white"/>
<path d="M19.1988 1.20117L19.4268 1.88517L19.0788 2.00517" fill="white"/>
<path d="M19.8835 1.69877L19.1625 1.6933L19.1559 2.06135" fill="white"/>
<path d="M19.8835 1.69869L19.3034 2.12689L19.0818 1.83301" fill="white"/>
<path d="M18.514 1.69869L19.0941 2.12689L19.3157 1.83301" fill="white"/>
<path d="M18.514 1.69877L19.235 1.6933L19.2416 2.06135" fill="white"/>
<path d="M19.622 2.50364L19.4044 1.81626L19.0523 1.92373" fill="white"/>
<path d="M19.622 2.50368L19.0355 2.08433L19.2465 1.7827" fill="white"/>
<path d="M18.7755 2.50368L19.362 2.08433L19.151 1.7827" fill="white"/>
<path d="M18.7755 2.50364L18.9931 1.81626L19.3452 1.92373" fill="white"/>
<path d="M22.0787 6.96094L21.8507 7.64494L22.1987 7.76494" fill="white"/>
<path d="M22.0787 6.96094L22.3067 7.64494L21.9587 7.76494" fill="white"/>
<path d="M22.7635 7.45854L22.0425 7.45307L22.0359 7.82112" fill="white"/>
<path d="M22.7635 7.45845L22.1834 7.88666L21.9618 7.59277" fill="white"/>
<path d="M21.394 7.45845L21.9741 7.88666L22.1957 7.59277" fill="white"/>
<path d="M21.394 7.45854L22.115 7.45307L22.1216 7.82112" fill="white"/>
<path d="M22.502 8.26341L22.2844 7.57603L21.9323 7.68349" fill="white"/>
<path d="M22.502 8.26345L21.9155 7.84409L22.1265 7.54246" fill="white"/>
<path d="M21.6555 8.26345L22.242 7.84409L22.031 7.54246" fill="white"/>
<path d="M21.6555 8.26341L21.8731 7.57603L22.2252 7.68349" fill="white"/>
<path d="M22.0787 4.08105L21.8507 4.76505L22.1987 4.88505" fill="white"/>
<path d="M22.0787 4.08105L22.3067 4.76505L21.9587 4.88505" fill="white"/>
<path d="M22.7635 4.57866L22.0425 4.57318L22.0359 4.94123" fill="white"/>
<path d="M22.7635 4.57857L22.1834 5.00678L21.9618 4.71289" fill="white"/>
<path d="M21.394 4.57857L21.9741 5.00678L22.1957 4.71289" fill="white"/>
<path d="M21.394 4.57866L22.115 4.57318L22.1216 4.94123" fill="white"/>
<path d="M22.502 5.38353L22.2844 4.69614L21.9323 4.80361" fill="white"/>
<path d="M22.502 5.38356L21.9155 4.96421L22.1265 4.66258" fill="white"/>
<path d="M21.6555 5.38356L22.242 4.96421L22.031 4.66258" fill="white"/>
<path d="M21.6555 5.38353L21.8731 4.69614L22.2252 4.80361" fill="white"/>
<path d="M22.0787 1.20117L21.8507 1.88517L22.1987 2.00517" fill="white"/>
<path d="M22.0787 1.20117L22.3067 1.88517L21.9587 2.00517" fill="white"/>
<path d="M22.7635 1.69877L22.0425 1.6933L22.0359 2.06135" fill="white"/>
<path d="M22.7635 1.69869L22.1834 2.12689L21.9618 1.83301" fill="white"/>
<path d="M21.394 1.69869L21.9741 2.12689L22.1957 1.83301" fill="white"/>
<path d="M21.394 1.69877L22.115 1.6933L22.1216 2.06135" fill="white"/>
<path d="M22.502 2.50364L22.2844 1.81626L21.9323 1.92373" fill="white"/>
<path d="M22.502 2.50368L21.9155 2.08433L22.1265 1.7827" fill="white"/>
<path d="M21.6555 2.50368L22.242 2.08433L22.031 1.7827" fill="white"/>
<path d="M21.6555 2.50364L21.8731 1.81626L22.2252 1.92373" fill="white"/>
<path d="M10.5588 6.96094L10.3308 7.64494L10.6788 7.76494" fill="white"/>
<path d="M10.5588 6.96094L10.7868 7.64494L10.4388 7.76494" fill="white"/>
<path d="M11.2435 7.45854L10.5225 7.45307L10.5159 7.82112" fill="white"/>
<path d="M11.2435 7.45845L10.6634 7.88666L10.4418 7.59277" fill="white"/>
<path d="M9.87399 7.45845L10.4541 7.88666L10.6757 7.59277" fill="white"/>
<path d="M9.87399 7.45854L10.595 7.45307L10.6016 7.82112" fill="white"/>
<path d="M10.982 8.26341L10.7644 7.57603L10.4123 7.68349" fill="white"/>
<path d="M10.982 8.26345L10.3955 7.84409L10.6065 7.54246" fill="white"/>
<path d="M10.1355 8.26345L10.722 7.84409L10.511 7.54246" fill="white"/>
<path d="M10.1355 8.26341L10.3531 7.57603L10.7052 7.68349" fill="white"/>
<path d="M13.4387 6.96094L13.2107 7.64494L13.5587 7.76494" fill="white"/>
<path d="M13.4387 6.96094L13.6667 7.64494L13.3187 7.76494" fill="white"/>
<path d="M14.1235 7.45854L13.4025 7.45307L13.3959 7.82112" fill="white"/>
<path d="M14.1235 7.45845L13.5434 7.88666L13.3218 7.59277" fill="white"/>
<path d="M12.754 7.45845L13.3341 7.88666L13.5557 7.59277" fill="white"/>
<path d="M12.754 7.45854L13.475 7.45307L13.4816 7.82112" fill="white"/>
<path d="M13.862 8.26341L13.6444 7.57603L13.2923 7.68349" fill="white"/>
<path d="M13.862 8.26345L13.2755 7.84409L13.4865 7.54246" fill="white"/>
<path d="M13.0155 8.26345L13.602 7.84409L13.391 7.54246" fill="white"/>
<path d="M13.0155 8.26341L13.2331 7.57603L13.5852 7.68349" fill="white"/>
<path d="M13.4387 4.08105L13.2107 4.76505L13.5587 4.88505" fill="white"/>
<path d="M13.4387 4.08105L13.6667 4.76505L13.3187 4.88505" fill="white"/>
<path d="M14.1235 4.57866L13.4025 4.57318L13.3959 4.94123" fill="white"/>
<path d="M14.1235 4.57857L13.5434 5.00678L13.3218 4.71289" fill="white"/>
<path d="M12.754 4.57857L13.3341 5.00678L13.5557 4.71289" fill="white"/>
<path d="M12.754 4.57866L13.475 4.57318L13.4816 4.94123" fill="white"/>
<path d="M13.862 5.38353L13.6444 4.69614L13.2923 4.80361" fill="white"/>
<path d="M13.862 5.38356L13.2755 4.96421L13.4865 4.66258" fill="white"/>
<path d="M13.0155 5.38356L13.602 4.96421L13.391 4.66258" fill="white"/>
<path d="M13.0155 5.38353L13.2331 4.69614L13.5852 4.80361" fill="white"/>
</g>
<defs>
<clipPath id="clip0_1272_594">
<rect width="40" height="30" fill="white"/>
</clipPath>
</defs>
</svg>
