<svg width="24" height="24" viewBox="0 0 24 24" fill="none" xmlns="http://www.w3.org/2000/svg">
<path fill-rule="evenodd" clip-rule="evenodd" d="M11.1646 3.1001H11.2H12.8H12.8354H12.8354C13.3653 3.10008 13.8165 3.10007 14.1869 3.13034C14.5761 3.16213 14.9546 3.23177 15.3166 3.41618C15.8623 3.69421 16.3059 4.13786 16.5839 4.68353C16.7683 5.04546 16.838 5.42405 16.8698 5.81321C16.8988 6.1685 16.9 6.59807 16.9 7.1001H17.8L17.8354 7.1001C18.3653 7.10008 18.8165 7.10007 19.1869 7.13034C19.5761 7.16213 19.9546 7.23177 20.3166 7.41618C20.8623 7.69421 21.3059 8.13786 21.5839 8.68353C21.7683 9.04546 21.838 9.42405 21.8698 9.81321C21.9 10.1836 21.9 10.6348 21.9 11.1647V11.1647V11.1647V11.2001V12.6001V12.6334C21.9 13.0249 21.9 13.3714 21.8766 13.6586C21.8516 13.9644 21.7956 14.2812 21.6384 14.5897C21.4083 15.0413 21.0412 15.4084 20.5896 15.6385C20.3617 15.7546 20.1292 15.8155 19.9 15.8495V16.4001V16.4362C19.9 17.0355 19.9 17.5391 19.8664 17.9512C19.8312 18.382 19.7547 18.7915 19.5567 19.1802C19.2547 19.7729 18.7728 20.2548 18.1801 20.5568C17.7914 20.7548 17.3819 20.8313 16.9511 20.8665C16.539 20.9001 16.0355 20.9001 15.4362 20.9001H15.4362L15.4 20.9001H8.60001L8.56387 20.9001H8.56377C7.96453 20.9001 7.46099 20.9001 7.04892 20.8665C6.61808 20.8313 6.20861 20.7548 5.81994 20.5568C5.22723 20.2548 4.74534 19.7729 4.44334 19.1802C4.2453 18.7915 4.16885 18.382 4.13365 17.9512C4.09998 17.5391 4.1 17.0355 4.10001 16.4362L4.10001 16.4001V15.8495C3.8708 15.8155 3.63832 15.7546 3.41043 15.6385C2.95884 15.4084 2.59169 15.0413 2.36159 14.5897C2.20443 14.2812 2.14842 13.9644 2.12343 13.6586C2.09997 13.3714 2.09999 13.025 2.10001 12.6335V12.6334L2.10001 12.6001V11.2001L2.10001 11.1647V11.1646C2.09999 10.6348 2.09998 10.1836 2.13025 9.81321C2.16204 9.42405 2.23168 9.04546 2.41609 8.68353C2.69412 8.13786 3.13777 7.69421 3.68344 7.41618C4.04537 7.23177 4.42396 7.16213 4.81312 7.13034C5.18356 7.10007 5.63474 7.10008 6.16461 7.1001L6.20001 7.1001H7.10001C7.10004 6.59807 7.10122 6.1685 7.13025 5.81321C7.16204 5.42405 7.23168 5.04546 7.41609 4.68353C7.69412 4.13786 8.13777 3.69421 8.68344 3.41618C9.04537 3.23177 9.42396 3.16213 9.81312 3.13034C10.1835 3.10007 10.6347 3.10008 11.1646 3.1001H11.1646ZM5.40001 14.1001H18.6C19.0349 14.1001 19.3069 14.0994 19.5119 14.0827C19.7064 14.0668 19.76 14.041 19.7724 14.0347C19.8853 13.9772 19.9771 13.8854 20.0346 13.7725C20.0409 13.7601 20.0667 13.7065 20.0826 13.512C20.0993 13.307 20.1 13.035 20.1 12.6001V11.2001C20.1 10.6252 20.0993 10.2481 20.0758 9.95979C20.053 9.68194 20.0137 9.5666 19.9801 9.50071C19.8747 9.29373 19.7064 9.12545 19.4994 9.01999C19.4335 8.98642 19.3182 8.94706 19.0403 8.92436C18.752 8.9008 18.3749 8.9001 17.8 8.9001H16.9V8.90011H16H8.00001H7.10001V8.9001H6.20001C5.62511 8.9001 5.24806 8.9008 4.9597 8.92436C4.68185 8.94706 4.56651 8.98642 4.50062 9.01999C4.29364 9.12545 4.12536 9.29373 4.0199 9.50071C3.98633 9.5666 3.94697 9.68194 3.92427 9.95979C3.90071 10.2481 3.90001 10.6252 3.90001 11.2001V12.6001C3.90001 13.035 3.90071 13.307 3.91746 13.512C3.93335 13.7065 3.95908 13.7601 3.96541 13.7725C4.02293 13.8854 4.11472 13.9772 4.22761 14.0347C4.24003 14.041 4.29363 14.0668 4.4881 14.0827C4.69308 14.0994 4.96512 14.1001 5.40001 14.1001ZM5.90001 15.9001V16.4001C5.90001 17.045 5.90071 17.4746 5.92767 17.8046C5.95378 18.1241 5.99995 18.2704 6.04715 18.363C6.17658 18.617 6.3831 18.8235 6.63712 18.953C6.72975 19.0002 6.87597 19.0463 7.1955 19.0724C7.52554 19.0994 7.9551 19.1001 8.60001 19.1001H15.4C16.0449 19.1001 16.4745 19.0994 16.8045 19.0724C17.1241 19.0463 17.2703 19.0002 17.3629 18.953C17.6169 18.8235 17.8234 18.617 17.9529 18.363C18.0001 18.2704 18.0462 18.1241 18.0723 17.8046C18.0993 17.4746 18.1 17.045 18.1 16.4001V15.9001H5.90001ZM15.0757 5.95979C15.0979 6.23108 15.0998 6.58088 15.1 7.1001H8.90002C8.90017 6.58088 8.9021 6.23108 8.92427 5.95979C8.94697 5.68194 8.98633 5.5666 9.0199 5.50071C9.12536 5.29373 9.29364 5.12545 9.50062 5.01999C9.56651 4.98642 9.68185 4.94706 9.9597 4.92436C10.2481 4.9008 10.6251 4.9001 11.2 4.9001H12.8C13.3749 4.9001 13.752 4.9008 14.0403 4.92436C14.3182 4.94706 14.4335 4.98642 14.4994 5.01999C14.7064 5.12545 14.8747 5.29373 14.9801 5.50071C15.0137 5.5666 15.053 5.68194 15.0757 5.95979Z" fill="#2D66EE"/>
</svg>
